<svg xmlns="http://www.w3.org/2000/svg" viewBox="0 0 340.7 271.3"><defs><style>.prefix__a2fb353c-e1dd-4c17-848c-b1f9b9fd5c71,.prefix__f227ea9c-22ac-41a6-a06d-8af2aff61dbd{fill:#fff}.prefix__bfc4d32c-6665-4a95-b240-c6d74aa62606{fill:none;stroke-miterlimit:10;stroke:#fff;stroke-width:.5px}.prefix__f227ea9c-22ac-41a6-a06d-8af2aff61dbd{fill-rule:evenodd}.prefix__e71b001c-cd7d-48b4-a212-2b6f1e6551d2{fill:#fefefe}</style></defs><g id="prefix__b912802f-f108-4f7c-843c-d7ad1880831c" data-name="TEXT BLANCO"><path d="M121.2 71a3.9 3.9 0 0 1-3.6 4.2v5.6a4.2 4.2 0 0 1 0 8.2v5.6a4.2 4.2 0 0 1 0 8.3v5.6a4.2 4.2 0 0 1 0 8.2v5.6a3.8 3.8 0 0 1 3.6 4h25.3c0-4 2.8-7.3 6.2-7.3V64.4c-3.4 0-6.2-3.2-6.2-7.2h-25.3a3.9 3.9 0 0 1-3.6 4.1V67a3.9 3.9 0 0 1 3.6 4.2Z" fill="#dc3545"/><path class="prefix__a2fb353c-e1dd-4c17-848c-b1f9b9fd5c71" transform="rotate(-90 130.3 116.2)" d="M129.7 109.1H131V123.3H129.7z"/><path class="prefix__a2fb353c-e1dd-4c17-848c-b1f9b9fd5c71" transform="rotate(-90 130.3 107.4)" d="M128.9 100.3H131.8V114.5H128.9z"/><path class="prefix__a2fb353c-e1dd-4c17-848c-b1f9b9fd5c71" transform="rotate(-90 130.3 110.6)" d="M129.9 103.5H130.8V117.7H129.9z"/><path class="prefix__a2fb353c-e1dd-4c17-848c-b1f9b9fd5c71" transform="rotate(-90 130.3 93)" d="M129.5 85.8H131.2V100H129.5z"/><path class="prefix__a2fb353c-e1dd-4c17-848c-b1f9b9fd5c71" transform="rotate(-90 130.3 99.7)" d="M129.9 92.5H130.8V106.7H129.9z"/><path class="prefix__a2fb353c-e1dd-4c17-848c-b1f9b9fd5c71" transform="rotate(-90 130.3 113.3)" d="M129.2 106.2H131.5V120.4H129.2z"/><path class="prefix__a2fb353c-e1dd-4c17-848c-b1f9b9fd5c71" transform="rotate(-90 130.3 103)" d="M128.5 95.9H132.1V110.1H128.5z"/><path class="prefix__a2fb353c-e1dd-4c17-848c-b1f9b9fd5c71" transform="rotate(-90 130.3 96.3)" d="M128.8 89.3H131.8V103.5H128.8z"/><path class="prefix__a2fb353c-e1dd-4c17-848c-b1f9b9fd5c71" transform="rotate(-90 130.3 90.4)" d="M129.7 83.3H131V97.5H129.7z"/><path class="prefix__a2fb353c-e1dd-4c17-848c-b1f9b9fd5c71" transform="rotate(-90 130.3 81.6)" d="M128.9 74.5H131.8V88.7H128.9z"/><path class="prefix__a2fb353c-e1dd-4c17-848c-b1f9b9fd5c71" transform="rotate(-90 130.3 84.8)" d="M129.9 77.7H130.8V91.9H129.9z"/><path class="prefix__a2fb353c-e1dd-4c17-848c-b1f9b9fd5c71" transform="rotate(-90 130.3 67.1)" d="M129.5 60H131.2V74.2H129.5z"/><path class="prefix__a2fb353c-e1dd-4c17-848c-b1f9b9fd5c71" transform="rotate(-90 130.3 73.8)" d="M129.9 66.8H130.8V81H129.9z"/><path class="prefix__a2fb353c-e1dd-4c17-848c-b1f9b9fd5c71" transform="rotate(-90 130.3 87.5)" d="M129.2 80.4H131.5V94.6H129.2z"/><path class="prefix__a2fb353c-e1dd-4c17-848c-b1f9b9fd5c71" transform="rotate(-90 130.3 77.2)" d="M128.5 70.1H132.1V84.3H128.5z"/><path class="prefix__a2fb353c-e1dd-4c17-848c-b1f9b9fd5c71" transform="rotate(-90 130.3 70.5)" d="M128.8 63.5H131.8V77.7H128.8z"/><path d="M206.7 106.3a2.3 2.3 0 0 1-2 2.5v3.4a2.5 2.5 0 0 1 0 4.9v3.3a2.5 2.5 0 0 1 0 5v3.3a2.5 2.5 0 0 1 0 5v3.3a2.3 2.3 0 0 1 2 2.3h15c0-2.3 1.7-4.3 3.8-4.3v-32.6a4 4 0 0 1-3.8-4.3h-15a2.3 2.3 0 0 1-2.1 2.4v3.4a2.3 2.3 0 0 1 2.1 2.4Z" fill="#00b65d"/><path class="prefix__bfc4d32c-6665-4a95-b240-c6d74aa62606" d="M221.8 98h-15a2.1 2.1 0 1 1-4.3 0h-43c0 2.4-1.6 4.4-3.6 4.4V135c2 0 3.7 2 3.7 4.3h42.9a2.1 2.1 0 1 1 4.2 0h15c0-2.4 1.7-4.3 3.8-4.3v-32.6a4 4 0 0 1-3.7-4.3Zm-17.2 35.6a2.5 2.5 0 1 1 2.1-2.4 2.3 2.3 0 0 1-2 2.4Zm0-8.2a2.5 2.5 0 1 1 2.1-2.5 2.3 2.3 0 0 1-2 2.5Zm0-8.3a2.5 2.5 0 1 1 2.1-2.5 2.3 2.3 0 0 1-2 2.5Zm0-8.3a2.5 2.5 0 1 1 2.1-2.5 2.3 2.3 0 0 1-2 2.5Z"/><path class="prefix__a2fb353c-e1dd-4c17-848c-b1f9b9fd5c71" d="M165.5 106.5v9.2a.8.8 0 0 1-1 .7h-3.8V115h2.9v-4.5h-3V109h3v-1.7h-3v-1.5h3.8a1 1 0 0 1 .8.3.8.8 0 0 1 .3.5ZM170.3 105.6h1.8v8.2h1.3v-8.2h1.9v10.7h-1.9v-1.2l-1.3.1v1.1h-1.9ZM177.5 105.6h2.4a1.3 1.3 0 0 1 .8.3.9.9 0 0 1 .4.6v8.9a.9.9 0 0 1-.4.6 1.2 1.2 0 0 1-.8.3h-2.4a1.3 1.3 0 0 1-.8-.3.9.9 0 0 1-.4-.6v-8.9a.9.9 0 0 1 .4-.7 1.3 1.3 0 0 1 .8-.2Zm.6 1v8.6h1.2v-8.5ZM182 105.6h3.3a1.3 1.3 0 0 1 1 1 26.6 26.6 0 0 1 .4 5.9 1.3 1.3 0 0 1-.9 1.2h-.2l1.5 2.7-1.8.7-1.3-2.6h-.1v1.8H182Zm1.9 1.9v5l.6-.3a.6.6 0 0 0 .4-.5 16.4 16.4 0 0 0 0-2 9.4 9.4 0 0 0-.4-2 .5.5 0 0 0-.5-.3ZM189 105.6h2.6l1.7 10.7H192l-.2-.8-2 .1v.7h-2Zm2.5 8.5-1-6-.6 6ZM199 106v2h-1.9v-1.1a1.3 1.3 0 0 0-.6-.2 1 1 0 0 0-.5.2v2l2.5.3a.8.8 0 0 1 .4.2.8.8 0 0 1 .1.4v6c0 .3-.3.5-1 .7a8.2 8.2 0 0 1-1.4 0 7.5 7.5 0 0 1-1.5 0c-.6-.2-1-.4-1-.7v-3.4h1.9v2.8a1.3 1.3 0 0 0 .6 0 1.4 1.4 0 0 0 .5 0v-4.6l-2.5-.4c-.3 0-.5-.3-.5-.5V106c0-.3.4-.5 1-.7a7.5 7.5 0 0 1 1.5-.1 5.9 5.9 0 0 1 1.7.2c.4.1.7.3.7.6ZM198.3 132.1H161a2.8 2.8 0 0 0-2.8-2.8v-6.6a2.8 2.8 0 0 0 2.8-2.8h37.2a2.8 2.8 0 0 0 2.9 2.8v6.6a2.8 2.8 0 0 0-2.8 2.8Zm-35.6-8.9h.7a.2.2 0 0 0 .1-.1.2.2 0 0 0 0-.2v-.2H161a.1.1 0 0 0-.2 0 .2.2 0 0 0 0 .2.4.4 0 0 0 0 .2h.7v.2a.5.5 0 0 1 0 .1v5.3a1.4 1.4 0 0 0 .2.7c.1.2.2.2.4.2a.4.4 0 0 0 .3-.2 1.6 1.6 0 0 0 0-.7v-5.3a.5.5 0 0 1 .2-.2Zm2.2-.4a.4.4 0 0 0-.3-.2.5.5 0 0 0-.4.2 1 1 0 0 0 0 .6v5.3a1.5 1.5 0 0 0 0 .6l.4.3q.2 0 .3-.3a1.6 1.6 0 0 0 .1-.6v-5.3a1 1 0 0 0-.1-.6Zm2.6 3.6a.3.3 0 0 0 0-.2.3.3 0 0 0 0-.2h-.8l-.2-.4v-2c0-.3 0-.4.2-.4h.7a.1.1 0 0 0 .1 0 .3.3 0 0 0 0-.2.3.3 0 0 0 0-.2H166c-.1 0-.2 0-.3.2a1.3 1.3 0 0 0-.2.6v5.3a.9.9 0 0 0 .2.6.5.5 0 0 0 .4.2h1.5a.2.2 0 0 0 .2-.1.3.3 0 0 0 0-.2.2.2 0 0 0-.2-.2h-.7a.4.4 0 0 1-.3-.2.9.9 0 0 1-.2-.6v-1.7a.3.3 0 0 1 0-.2s.1 0 .2 0h.7l.1-.1Zm.9 3.1v.1c.2 0 .2 0 .2-.3v-2.7a.4.4 0 0 1 0-.2.1.1 0 0 1 .1-.1c.1 0 .2 0 .2.3l.6 2.6v.1a.7.7 0 0 0 0 .1.4.4 0 0 0 0 .2c.1 0 .2 0 .2-.3l.6-2.8q0-.4.2-.4s.1.1.1.3v2.4a1.2 1.2 0 0 0 .2.6c0 .1.1.2.3.2a.4.4 0 0 0 .3-.2 1.1 1.1 0 0 0 .1-.5v-5.4a1 1 0 0 0-.1-.6.4.4 0 0 0-.3-.2c-.2 0-.4.3-.5.7l-.6 2.8c0 .3-.1.4-.2.4l-.2-.3-.6-3q-.1-.6-.4-.6c-.3 0-.5.3-.5.8v5.8a.5.5 0 0 0 .3.2Zm4.2-6.5a1.5 1.5 0 0 0-.3 1V128.6a2.2 2.2 0 0 0 .1.7.4.4 0 0 0 .4.3c.1 0 .2 0 .3-.2a1.1 1.1 0 0 0 .2-.5v-1.4h.2a.9.9 0 0 0 .6-.3 1.3 1.3 0 0 0 .3-1v-2.5a1 1 0 0 0-1-1 .9.9 0 0 0-.8.3Zm.5.2a.4.4 0 0 1 .3.2 1.6 1.6 0 0 1 .1.7v2.1a.8.8 0 0 1-.1.5.4.4 0 0 1-.3.3l-.3-.3a1 1 0 0 1-.2-.5V124a1.1 1.1 0 0 1 .1-.5.4.4 0 0 1 .4-.3Zm1.9 5.8a1.2 1.2 0 0 0 .4.5.8.8 0 0 0 .4.1h.1a1 1 0 0 0 .8-.4 2 2 0 0 0 .2-1v-4a2 2 0 0 0-.2-.8 1 1 0 0 0-.3-.5.8.8 0 0 0-.5-.2 1 1 0 0 0-.7.4 1 1 0 0 0-.3.8v4.3a2 2 0 0 0 .1.8Zm1.5-.3a.5.5 0 0 1-.2.3h-.1c-.1 0-.2 0-.3-.2a1.2 1.2 0 0 1-.2-.7v-4a1.3 1.3 0 0 1 .2-.6.4.4 0 0 1 .3-.2c.1 0 .2 0 .3.2a2 2 0 0 1 .1.8v3.8a1.6 1.6 0 0 1 0 .6Zm2.8-5.7a1.5 1.5 0 0 0-.3 1v4.4a1 1 0 0 1 0 .1 2.5 2.5 0 0 0 0 .8.4.4 0 0 0 .5.3c.1 0 .2 0 .3-.2a1.1 1.1 0 0 0 .1-.6v-1.3h.2a.9.9 0 0 0 .7-.3 1.4 1.4 0 0 0 .3-1v-2.5a1 1 0 0 0-1-1 .9.9 0 0 0-.8.3Zm.5.2a.4.4 0 0 1 .2.2 1.5 1.5 0 0 1 .2.7v2.1a1 1 0 0 1-.1.5.4.4 0 0 1-.4.2s-.2 0-.3-.2a1 1 0 0 1-.1-.5V124a1 1 0 0 1 .1-.5.4.4 0 0 1 .3-.3Zm1.8 5.7v.1a1.2 1.2 0 0 0 0 .4l.1.2a.1.1 0 0 0 .1 0v-.2a1.2 1.2 0 0 1 0-.2l.2-.9.2-.2h1q.2 0 .2.3l.2.6c0 .4.2.6.4.6a.4.4 0 0 0 .3-.3.9.9 0 0 0 .1-.4v-.1a3.3 3.3 0 0 0 0-.5l-1.2-5.3c0-.2-.2-.3-.2-.3a.1.1 0 0 0-.1 0 1.4 1.4 0 0 0-.1.3l-1.2 5.8a.7.7 0 0 1 0 .1Zm1-3.3a.1.1 0 0 1 .2.1 1 1 0 0 1 0 .3l.3 1.1a.5.5 0 0 1 0 .2.5.5 0 0 1 0 .2H182.2a1.7 1.7 0 0 1 0-.3l.2-1.3.1-.3Zm2.6 3.7a1 1 0 0 0 .7.3 1 1 0 0 0 .8-.4 1.4 1.4 0 0 0 .3-1V123a1 1 0 0 0 0-.3l-.2-.1-.1.3v5.3a.9.9 0 0 1-.1.5.4.4 0 0 1-.4.2s-.2 0-.2-.2a1 1 0 0 1-.2-.5v-4.7a1.4 1.4 0 0 0-.1-.6c0-.2-.2-.3-.3-.3l-.4.3a1.3 1.3 0 0 0-.1.6v4.8a1.1 1.1 0 0 0 .3 1Zm3.7-4.1.3.1a.4.4 0 0 0 .3-.2 1 1 0 0 0 .2-.5v-.8a1.1 1.1 0 0 0-.4-.9 1 1 0 0 0-.7-.3.9.9 0 0 0-.5.2 1.1 1.1 0 0 0-.4.5 1.8 1.8 0 0 0-.2.7v1.2a1.6 1.6 0 0 0 .5 1.2l1 1a1 1 0 0 1 .3.6v.4a.8.8 0 0 1 0 .4.4.4 0 0 1-.4.2.4.4 0 0 1-.3-.2.7.7 0 0 1-.2-.4v-.6a1.4 1.4 0 0 0 0-.6.4.4 0 0 0-.4-.2.4.4 0 0 0-.3.2.8.8 0 0 0-.1.5v1a1 1 0 0 0 .3.7.9.9 0 0 0 .6.3 1.2 1.2 0 0 0 .8-.4 1.2 1.2 0 0 0 .3-.9V127a1.5 1.5 0 0 0-.4-1l-1-1a1 1 0 0 1-.4-.8 1.1 1.1 0 0 1 .1-.5.4.4 0 0 1 .4-.3.4.4 0 0 1 .3.2 1 1 0 0 1 .2.6v.6a.7.7 0 0 0 .1.4Zm1.3 3.7v.1a1.2 1.2 0 0 0 0 .4v.2a.1.1 0 0 0 .2 0 .7.7 0 0 0 0-.2v-.2l.2-.9.2-.2h1l.2.3.1.6q.1.5.5.5a.4.4 0 0 0 .3-.2.8.8 0 0 0 .1-.5 3.3 3.3 0 0 0 0-.5l-1.2-5.3c0-.2-.1-.3-.2-.3a.1.1 0 0 0-.1 0 1.6 1.6 0 0 0 0 .3l-1.3 5.8a.7.7 0 0 1 0 .1Zm1-3.3.2.1a1 1 0 0 1 0 .3l.3 1.1a.5.5 0 0 1 0 .2.5.5 0 0 1 0 .2h-.7a1.7 1.7 0 0 1-.2-.3l.3-1.3c0-.2.1-.3.2-.3Zm4 4h.1a.4.4 0 0 0 .4-.2 1.1 1.1 0 0 0 0-.6v-4.6a1.8 1.8 0 0 0-.2-1 1.1 1.1 0 0 0-.5-.4 1.2 1.2 0 0 0-.4-.1.9.9 0 0 0-.5.1 1.1 1.1 0 0 0-.3.5 1.7 1.7 0 0 0-.2.7v5.6Zm-1.2-6.2a.5.5 0 0 1 .4-.1.4.4 0 0 1 .3.2 1 1 0 0 1 .2.6v4a1.6 1.6 0 0 1-.2.7q0 .3-.3.3h-.5v-5.2a.6.6 0 0 1 .2-.4Zm2.3 5.6a1.2 1.2 0 0 0 .5.5.8.8 0 0 0 .4 0 1 1 0 0 0 .8-.3 2.1 2.1 0 0 0 .2-1.1v-4a2.3 2.3 0 0 0 0-.8 1.1 1.1 0 0 0-.5-.5.8.8 0 0 0-.5-.1 1 1 0 0 0-.7.3 1.1 1.1 0 0 0-.3.8v4.4a2 2 0 0 0 .2.8Zm1.6-.3a.5.5 0 0 1-.3.3c-.2 0-.3 0-.4-.2a1.2 1.2 0 0 1-.1-.7v-4a1.4 1.4 0 0 1 .1-.6.4.4 0 0 1 .3-.3.3.3 0 0 1 .3.3 2 2 0 0 1 .2.8v3.8a1.8 1.8 0 0 1-.1.6Z"/><path class="prefix__a2fb353c-e1dd-4c17-848c-b1f9b9fd5c71" transform="rotate(-90 212.2 133.3)" d="M211.8 129.1H212.6V137.5H211.8z"/><path class="prefix__a2fb353c-e1dd-4c17-848c-b1f9b9fd5c71" transform="rotate(-90 212.2 128)" d="M211.3 123.8H213V132.2H211.3z"/><path class="prefix__a2fb353c-e1dd-4c17-848c-b1f9b9fd5c71" transform="rotate(-90 212.2 130)" d="M211.9 125.8H212.5V134.2H211.9z"/><path class="prefix__a2fb353c-e1dd-4c17-848c-b1f9b9fd5c71" transform="rotate(-90 212.2 119.4)" d="M211.7 115.2H212.7V123.6H211.7z"/><path class="prefix__a2fb353c-e1dd-4c17-848c-b1f9b9fd5c71" transform="rotate(-90 212.2 123.4)" d="M211.9 119.2H212.5V127.6H211.9z"/><path class="prefix__a2fb353c-e1dd-4c17-848c-b1f9b9fd5c71" transform="rotate(-90 212.2 131.6)" d="M211.5 127.4H212.8V135.8H211.5z"/><path class="prefix__a2fb353c-e1dd-4c17-848c-b1f9b9fd5c71" transform="rotate(-90 212.2 125.4)" d="M211.1 121.2H213.2V129.6H211.1z"/><path class="prefix__a2fb353c-e1dd-4c17-848c-b1f9b9fd5c71" transform="rotate(-90 212.2 121.4)" d="M211.3 117.2H213.1V125.6H211.3z"/><path class="prefix__a2fb353c-e1dd-4c17-848c-b1f9b9fd5c71" transform="rotate(-90 212.2 117.9)" d="M211.8 113.7H212.6V122.1H211.8z"/><path class="prefix__a2fb353c-e1dd-4c17-848c-b1f9b9fd5c71" transform="rotate(-90 212.2 112.6)" d="M211.3 108.4H213V116.8H211.3z"/><path class="prefix__a2fb353c-e1dd-4c17-848c-b1f9b9fd5c71" transform="rotate(-90 212.2 114.6)" d="M211.9 110.3H212.5V118.7H211.9z"/><path class="prefix__a2fb353c-e1dd-4c17-848c-b1f9b9fd5c71" transform="rotate(-90 212.2 104)" d="M211.7 99.8H212.7V108.2H211.7z"/><path class="prefix__a2fb353c-e1dd-4c17-848c-b1f9b9fd5c71" transform="rotate(-90 212.2 108)" d="M211.9 103.8H212.5V112.2H211.9z"/><path class="prefix__a2fb353c-e1dd-4c17-848c-b1f9b9fd5c71" transform="rotate(-90 212.2 116.2)" d="M211.5 111.9H212.8V120.3H211.5z"/><path class="prefix__a2fb353c-e1dd-4c17-848c-b1f9b9fd5c71" transform="rotate(-90 212.2 110)" d="M211.1 105.8H213.2V114.2H211.1z"/><path class="prefix__a2fb353c-e1dd-4c17-848c-b1f9b9fd5c71" transform="rotate(-90 212.2 106)" d="M211.3 101.8H213.1V110.2H211.3z"/><path class="prefix__bfc4d32c-6665-4a95-b240-c6d74aa62606" d="M160.2 102.9 199.1 102.9"/><path class="prefix__bfc4d32c-6665-4a95-b240-c6d74aa62606" d="M162.8 101 196.5 101"/><path class="prefix__bfc4d32c-6665-4a95-b240-c6d74aa62606" d="M199.1 134.4 160.2 134.4"/><path class="prefix__bfc4d32c-6665-4a95-b240-c6d74aa62606" d="M196.5 136.4 162.8 136.4"/><path d="M208 58.5a2.4 2.4 0 0 1-2.1 2.5v3.4a2.5 2.5 0 0 1 0 5v3.4a2.5 2.5 0 0 1 0 5v3.4a2.5 2.5 0 0 1 0 5v3.4a2.3 2.3 0 0 1 2.1 2.5h15.2c0-2.4 1.7-4.4 3.8-4.4V54.4c-2.1 0-3.8-2-3.8-4.4H208a2.4 2.4 0 0 1-2.2 2.6V56a2.4 2.4 0 0 1 2.2 2.5Z" fill="#4c278d"/><path class="prefix__bfc4d32c-6665-4a95-b240-c6d74aa62606" d="M223.2 50H208a2.2 2.2 0 1 1-4.3 0h-43.4c0 2.4-1.7 4.4-3.8 4.4v33.3c2.1 0 3.8 2 3.8 4.4h43.4a2.2 2.2 0 1 1 4.3 0h15.2c0-2.4 1.7-4.4 3.8-4.4V54.4c-2 0-3.8-2-3.8-4.4ZM206 86.3a2.5 2.5 0 1 1 2.1-2.5 2.4 2.4 0 0 1-2.1 2.5Zm0-8.4a2.5 2.5 0 1 1 2.1-2.5 2.4 2.4 0 0 1-2.1 2.5Zm0-8.5A2.5 2.5 0 1 1 208 67a2.4 2.4 0 0 1-2.1 2.5Zm0-8.4a2.5 2.5 0 1 1 2.1-2.5 2.4 2.4 0 0 1-2.1 2.5Z"/><path class="prefix__a2fb353c-e1dd-4c17-848c-b1f9b9fd5c71" d="M160.4 58.5h1.9v10.9h-2v-8.7h-1ZM164.8 58.5h2.4a1.3 1.3 0 0 1 .8.2.9.9 0 0 1 .3.7v9a.9.9 0 0 1-.3.7 1.3 1.3 0 0 1-.8.3h-2.4a1.3 1.3 0 0 1-.9-.3.9.9 0 0 1-.3-.7v-9a.9.9 0 0 1 .3-.7 1.3 1.3 0 0 1 .9-.3Zm.6 1v8.8h1.2v-8.7ZM173.2 58.5h1.9v8.4l1.3-.1v-8.3h1.9v10.9h-1.9v-1.2h-1.3v1.2h-1.9ZM180.6 58.5h2.3a1.3 1.3 0 0 1 .9.2.9.9 0 0 1 .3.7v9a.9.9 0 0 1-.3.7 1.3 1.3 0 0 1-.9.3h-2.4a1.3 1.3 0 0 1-.8-.3.9.9 0 0 1-.3-.7v-9a.9.9 0 0 1 .3-.7 1.3 1.3 0 0 1 .9-.3Zm.5 1v8.8h1.3v-8.7ZM185 58.5h3.4a1.4 1.4 0 0 1 1 1 27 27 0 0 1 .4 6 1.3 1.3 0 0 1-.9 1.3l-.2.1 1.5 2.6-1.7.8-1.4-2.7h-.1v1.8H185Zm2 1.9v5.1l.6-.2a.6.6 0 0 0 .4-.5 16.8 16.8 0 0 0 0-2 9.9 9.9 0 0 0-.3-2 .5.5 0 0 0-.5-.4ZM192 58.5h2.7l1.7 10.9H195l-.1-.8-2 .1-.1.7h-1.9Zm2.6 8.7-1-6.1-.6 6.2ZM202.1 59v2h-1.9v-1.3a1.3 1.3 0 0 0-.6-.1 1.2 1.2 0 0 0-.5.1v2.1l2.5.4a.7.7 0 0 1 .4.2.7.7 0 0 1 .1.4v6.1q0 .5-1 .7a7.5 7.5 0 0 1-1.5.1 6.9 6.9 0 0 1-1.4-.1c-.7-.2-1-.4-1-.7v-3.5h1.8v2.8a1.3 1.3 0 0 0 .6.2 1.4 1.4 0 0 0 .6-.2v-4.6l-2.5-.4a.6.6 0 0 1-.5-.6V59c0-.3.3-.5 1-.7a6.9 6.9 0 0 1 1.5-.2 6 6 0 0 1 1.6.2c.6.2.8.4.8.7ZM199.8 84.8H162a2.8 2.8 0 0 0-2.8-2.9v-6.8a2.8 2.8 0 0 0 2.9-2.8h37.7a2.8 2.8 0 0 0 2.8 2.9v6.7a2.8 2.8 0 0 0-2.8 2.9Zm-35.7-9h.7a.2.2 0 0 0 .1-.2.2.2 0 0 0 0-.1v-.3h-2.5a.1.1 0 0 0-.1.1.3.3 0 0 0 0 .2.4.4 0 0 0 0 .2h.7v.1a.8.8 0 0 1 0 .2v5.5a1.4 1.4 0 0 0 .2.6c.1.2.2.3.4.3a.4.4 0 0 0 .3-.3 1.7 1.7 0 0 0 0-.6V76a.5.5 0 0 1 .2-.2Zm2.1-.4a.4.4 0 0 0-.3-.2.4.4 0 0 0-.3.2 1 1 0 0 0-.1.5v5.5a1.5 1.5 0 0 0 .1.7c.1.2.2.3.4.3l.3-.3a1.7 1.7 0 0 0 .1-.7V76a1 1 0 0 0-.2-.6ZM169 79a.3.3 0 0 0 0-.1.3.3 0 0 0 0-.2.1.1 0 0 0-.1 0h-.8l-.2-.4V76c0-.2 0-.3.2-.3h.7a.1.1 0 0 0 .1-.1.3.3 0 0 0 0-.2.5.5 0 0 0 0-.2h-1.4c-.2 0-.3 0-.4.2a1.4 1.4 0 0 0-.1.7v5.4a.9.9 0 0 0 .2.6.5.5 0 0 0 .4.2h1.5a.2.2 0 0 0 .1 0 .4.4 0 0 0 .1-.2c0-.2 0-.3-.3-.3h-.6a.4.4 0 0 1-.3-.2 1 1 0 0 1-.2-.5v-1.8a.3.3 0 0 1 0-.2.1.1 0 0 1 .2 0h.7a.2.2 0 0 0 .2-.2Zm.8 3.3h.2v-3a.5.5 0 0 1 0-.2.2.2 0 0 1 .2-.1l.2.3.5 2.7v.2a.8.8 0 0 0 0 .1l.2.1.1-.3.6-3c0-.2.1-.3.2-.3l.1.3v2.5a1.2 1.2 0 0 0 .2.6q.1.2.3.2a.3.3 0 0 0 .3-.2 1 1 0 0 0 .1-.6v-5.5a1.1 1.1 0 0 0-.1-.6.4.4 0 0 0-.3-.2c-.2 0-.4.3-.5.8l-.6 2.8c0 .3-.1.4-.2.4l-.2-.3-.6-3c0-.5-.2-.7-.4-.7-.3 0-.5.3-.5.8v6a.5.5 0 0 0 .2.2Zm4.3-6.7a1.6 1.6 0 0 0-.3 1v4.5a1.3 1.3 0 0 1 0 .2 2.8 2.8 0 0 0 0 .8.5.5 0 0 0 .5.3c.1 0 .2 0 .3-.2a1 1 0 0 0 .1-.6v-1.3h.2a.9.9 0 0 0 .7-.4 1.4 1.4 0 0 0 .3-1v-2.6a1 1 0 0 0-1-1 1 1 0 0 0-.8.3Zm.5.2.2.2a1.6 1.6 0 0 1 .2.8v2.1a1 1 0 0 1-.1.5c-.1.2-.2.3-.4.3l-.3-.3a1 1 0 0 1-.1-.5v-2.3a1 1 0 0 1 .1-.6.4.4 0 0 1 .3-.2Zm1.9 6a1.1 1.1 0 0 0 .4.5.9.9 0 0 0 .4.1h.1a1 1 0 0 0 .7-.4 2.2 2.2 0 0 0 .2-1v-4.3a2.5 2.5 0 0 0-.1-.8 1.1 1.1 0 0 0-.4-.5.8.8 0 0 0-.5-.2 1 1 0 0 0-.7.4 1.2 1.2 0 0 0-.3.8V81a2 2 0 0 0 .2.8Zm1.5-.3a.5.5 0 0 1-.3.4l-.3-.3a1.3 1.3 0 0 1-.2-.7v-4.1a1.5 1.5 0 0 1 .1-.7.5.5 0 0 1 .4-.2s.2 0 .3.2a2.1 2.1 0 0 1 0 .8v4a1.9 1.9 0 0 1 0 .6Zm2.8-5.8a1.6 1.6 0 0 0-.3 1v4.7a2.4 2.4 0 0 0 0 .7.5.5 0 0 0 .4.3c.2 0 .3 0 .4-.2a1 1 0 0 0 .1-.5v-1.4h.2a.9.9 0 0 0 .7-.4 1.4 1.4 0 0 0 .3-1v-2.6a1 1 0 0 0-1.1-1 1 1 0 0 0-.7.3Zm.4.2a.4.4 0 0 1 .3.2 1.7 1.7 0 0 1 .2.7V79a1 1 0 0 1-.2.5.4.4 0 0 1-.3.2c-.1 0-.2 0-.3-.2a1 1 0 0 1-.2-.5v-2.4a1.2 1.2 0 0 1 .2-.6.4.4 0 0 1 .3-.2Zm1.9 5.8v.1a1.7 1.7 0 0 0 0 .4v.2a.1.1 0 0 0 .2 0 .3.3 0 0 0 0-.2 1 1 0 0 0 0-.2l.2-.9c0-.2.1-.2.2-.2h1l.2.3.1.6c0 .4.2.6.4.6a.4.4 0 0 0 .4-.3.9.9 0 0 0 .1-.5 2.1 2.1 0 0 0 0-.6l-1.2-5.4-.2-.4a.1.1 0 0 0-.1 0l-.1.4-1.2 6Zm1-3.4a.1.1 0 0 1 .1.1 2 2 0 0 1 0 .3l.3 1.1a.2.2 0 0 0 0 .1.7.7 0 0 1 0 .1.4.4 0 0 1 0 .2s0 .1 0 .1h-.7a1 1 0 0 1-.1-.3.8.8 0 0 0 0-.1l.2-1.3c0-.2.1-.3.2-.3Zm2.6 3.8a1 1 0 0 0 .7.3 1 1 0 0 0 .7-.4 1.4 1.4 0 0 0 .3-1v-5.3a1 1 0 0 0 0-.3l-.1-.2-.1.4V81a1 1 0 0 1-.2.5.4.4 0 0 1-.3.2l-.3-.2a1.1 1.1 0 0 1-.1-.6v-4.8a1.5 1.5 0 0 0-.1-.6c-.1-.2-.2-.3-.4-.3s-.2 0-.3.2a1.4 1.4 0 0 0-.1.7v5a1.3 1.3 0 0 0 .3.9Zm3.6-4.3c.1.2.2.2.3.2l.3-.2a1 1 0 0 0 .2-.6v-.8a1.2 1.2 0 0 0-.3-.8 1 1 0 0 0-.8-.4.9.9 0 0 0-.5.2 1.2 1.2 0 0 0-.4.5 1.9 1.9 0 0 0-.1.8v1.2a1.6 1.6 0 0 0 .4 1.2l1 1a1 1 0 0 1 .4.7v.3a1 1 0 0 1-.1.4.4.4 0 0 1-.4.3.4.4 0 0 1-.3-.2.8.8 0 0 1-.1-.5v-.6a1.4 1.4 0 0 0-.2-.6.4.4 0 0 0-.3-.3.4.4 0 0 0-.3.2.9.9 0 0 0-.1.5v1a1 1 0 0 0 .3.8 1 1 0 0 0 .6.3h.2a1.1 1.1 0 0 0 .7-.4 1.3 1.3 0 0 0 .4-1v-1.3a1.5 1.5 0 0 0-.4-1l-1-1a1 1 0 0 1-.4-.8 1.1 1.1 0 0 1 .1-.6.5.5 0 0 1 .3-.3.4.4 0 0 1 .4.3 1 1 0 0 1 .1.5v.7a.7.7 0 0 0 0 .3Zm1.4 3.9a.8.8 0 0 1 0 .1 1.7 1.7 0 0 0-.1.4l.1.2a.1.1 0 0 0 .1 0 .3.3 0 0 0 0-.2 1.5 1.5 0 0 0 .1-.2l.2-.9c0-.2.1-.2.2-.2h1l.2.3.1.6c0 .4.2.6.4.6a.4.4 0 0 0 .4-.3.9.9 0 0 0 0-.5 2.1 2.1 0 0 0 0-.6l-1.2-5.4-.1-.4a.1.1 0 0 0-.1 0 1.6 1.6 0 0 0-.1.4l-1.2 6Zm1-3.4a.1.1 0 0 1 .1.1 2 2 0 0 1 .1.3l.3 1.1v.1a.7.7 0 0 1 0 .1.5.5 0 0 1 0 .2s-.1.1-.1.1h-.7a1 1 0 0 1-.1-.3.8.8 0 0 0 0-.1l.2-1.3c0-.2.1-.3.2-.3Zm3.8 4h.2a.4.4 0 0 0 .4-.1 1.1 1.1 0 0 0 .1-.6v-4.8a1.9 1.9 0 0 0-.2-1 1.1 1.1 0 0 0-.5-.4 1.3 1.3 0 0 0-.4 0 .8.8 0 0 0-.5 0 1.1 1.1 0 0 0-.4.5 1.7 1.7 0 0 0-.2.8v5.7Zm-1-6.2a.5.5 0 0 1 .3-.2c.1 0 .2 0 .3.3a1.3 1.3 0 0 1 .2.6v4a1.9 1.9 0 0 1-.1.8c-.1.2-.2.3-.4.3h-.5v-5.4a.6.6 0 0 1 .2-.4Zm2.3 5.7a1.1 1.1 0 0 0 .4.5.9.9 0 0 0 .4 0 1 1 0 0 0 .8-.3 2.2 2.2 0 0 0 .3-1.1v-4.2a2.2 2.2 0 0 0-.2-.8 1 1 0 0 0-.3-.5.8.8 0 0 0-.5-.2 1 1 0 0 0-.7.4 1.1 1.1 0 0 0-.4.8V81a2 2 0 0 0 .2.8Zm1.5-.3a.5.5 0 0 1-.3.3c-.1 0-.2 0-.3-.2a1.3 1.3 0 0 1-.2-.7v-4.1a1.3 1.3 0 0 1 .1-.7.5.5 0 0 1 .4-.2s.2 0 .3.2a2.2 2.2 0 0 1 0 .8v4a1.7 1.7 0 0 1 0 .6Z"/><path class="prefix__a2fb353c-e1dd-4c17-848c-b1f9b9fd5c71" transform="rotate(-90 213.5 86)" d="M213.1 81.7H213.9V90.2H213.1z"/><path class="prefix__a2fb353c-e1dd-4c17-848c-b1f9b9fd5c71" transform="rotate(-90 213.5 80.6)" d="M212.6 76.3H214.4V84.8H212.6z"/><path class="prefix__a2fb353c-e1dd-4c17-848c-b1f9b9fd5c71" transform="rotate(-90 213.5 82.6)" d="M213.2 78.3H213.8V86.8H213.2z"/><path class="prefix__a2fb353c-e1dd-4c17-848c-b1f9b9fd5c71" transform="rotate(-90 213.5 71.8)" d="M213 67.5H214V76H213z"/><path class="prefix__a2fb353c-e1dd-4c17-848c-b1f9b9fd5c71" transform="rotate(-90 213.5 75.9)" d="M213.2 71.6H213.8V80.1H213.2z"/><path class="prefix__a2fb353c-e1dd-4c17-848c-b1f9b9fd5c71" transform="rotate(-90 213.5 84.2)" d="M212.8 80H214.2V88.5H212.8z"/><path class="prefix__a2fb353c-e1dd-4c17-848c-b1f9b9fd5c71" transform="rotate(-90 213.5 78)" d="M212.4 73.7H214.6V82.2H212.4z"/><path class="prefix__a2fb353c-e1dd-4c17-848c-b1f9b9fd5c71" transform="rotate(-90 213.5 73.9)" d="M212.6 69.6H214.4V78.1H212.6z"/><path class="prefix__a2fb353c-e1dd-4c17-848c-b1f9b9fd5c71" transform="rotate(-90 213.5 70.3)" d="M213.1 66H213.9V74.5H213.1z"/><path class="prefix__a2fb353c-e1dd-4c17-848c-b1f9b9fd5c71" transform="rotate(-90 213.5 64.9)" d="M212.6 60.6H214.4V69.1H212.6z"/><path class="prefix__a2fb353c-e1dd-4c17-848c-b1f9b9fd5c71" transform="rotate(-90 213.5 66.9)" d="M213.2 62.6H213.8V71.1H213.2z"/><path class="prefix__a2fb353c-e1dd-4c17-848c-b1f9b9fd5c71" transform="rotate(-90 213.5 56)" d="M213 51.8H214V60.3H213z"/><path class="prefix__a2fb353c-e1dd-4c17-848c-b1f9b9fd5c71" transform="rotate(-90 213.5 60.2)" d="M213.2 55.9H213.8V64.4H213.2z"/><path class="prefix__a2fb353c-e1dd-4c17-848c-b1f9b9fd5c71" transform="rotate(-90 213.5 68.5)" d="M212.8 64.2H214.2V72.7H212.8z"/><path class="prefix__a2fb353c-e1dd-4c17-848c-b1f9b9fd5c71" transform="rotate(-90 213.5 62.2)" d="M212.4 58H214.6V66.5H212.4z"/><path class="prefix__a2fb353c-e1dd-4c17-848c-b1f9b9fd5c71" transform="rotate(-90 213.5 58.1)" d="M212.6 53.9H214.4V62.4H212.6z"/><path class="prefix__bfc4d32c-6665-4a95-b240-c6d74aa62606" d="M160.9 55 200.3 55"/><path class="prefix__bfc4d32c-6665-4a95-b240-c6d74aa62606" d="M163.6 53 197.7 53"/><path class="prefix__bfc4d32c-6665-4a95-b240-c6d74aa62606" d="M200.3 87.1 160.9 87.1"/><path class="prefix__bfc4d32c-6665-4a95-b240-c6d74aa62606" d="M197.7 89.1 163.6 89.1"/><path d="M301.1 74.3a3.2 3.2 0 0 1-3 3.4v4.6a3.5 3.5 0 0 1 0 6.9v4.6a3.5 3.5 0 0 1 0 6.8v4.7a3.5 3.5 0 0 1 0 6.8v4.6a3.2 3.2 0 0 1 3 3.2h21.2c0-3.3 2.4-6 5.3-6V69c-3 0-5.3-2.8-5.3-6h-21.2a3.2 3.2 0 0 1-3 3.3V71a3.2 3.2 0 0 1 3 3.4Z" fill="#ff8c00"/><path class="prefix__bfc4d32c-6665-4a95-b240-c6d74aa62606" d="M322.3 62.9h-21.2a3 3 0 1 1-6 0h-60.6c0 3.3-2.3 6-5.2 6V114c2.9 0 5.2 2.7 5.2 6h60.6a3 3 0 1 1 6 0h21.2c0-3.3 2.4-6 5.3-6V68.8c-3 0-5.3-2.6-5.3-6ZM298.1 112a3.5 3.5 0 1 1 3-3.4 3.2 3.2 0 0 1-3 3.4Zm0-11.5a3.5 3.5 0 1 1 3-3.4 3.2 3.2 0 0 1-3 3.4Zm0-11.4a3.5 3.5 0 1 1 3-3.4 3.2 3.2 0 0 1-3 3.4Zm0-11.5a3.5 3.5 0 1 1 3-3.4 3.2 3.2 0 0 1-3 3.4Z"/><path class="prefix__a2fb353c-e1dd-4c17-848c-b1f9b9fd5c71" d="M233.4 74.6h2.4v15h-2.4v-12h-1.5ZM249.1 75.3v2.6h-2.5v-1.6a1.6 1.6 0 0 0-.7-.2 1.4 1.4 0 0 0-.8.2v2.9l3.3.5a.9.9 0 0 1 .6.3 1 1 0 0 1 .1.6V89c0 .4-.4.7-1.3.9a8.9 8.9 0 0 1-2 .2 8.2 8.2 0 0 1-1.8-.2c-.9-.2-1.3-.5-1.3-1v-4.7h2.5V88a1.5 1.5 0 0 0 .7.2 1.7 1.7 0 0 0 .8-.2v-6.5l-3.4-.5a.7.7 0 0 1-.6-.8v-5c0-.4.5-.7 1.3-.9a9 9 0 0 1 2-.3 7 7 0 0 1 2.1.3c.7.2 1 .5 1 .9ZM253 86.3v1.2h3.3v2.2h-5.8V74.6h5.8v2.2H253v7.5l1.9-.1v2ZM258 74.6h4.4a10.6 10.6 0 0 1 4.3.6 1.3 1.3 0 0 1 .9 1v13.5H265v-13c-.1-.3-.5-.4-1-.4v13.4h-2.5v-13a1.5 1.5 0 0 0-1.1-.4v13.4H258ZM270.4 74.6h3.5l2.3 15h-2l-.1-1-2.6.1-.1 1h-2.5Zm3.4 12-1.3-8.4-.8 8.5ZM277.1 74.6h2.5a12 12 0 0 1 2.7.2c1 .2 1.6.7 1.6 1.5v13.4h-2.4v-13a1.8 1.8 0 0 0-1.4-.4 1.7 1.7 0 0 0-.5 0v13.4h-2.5ZM286.9 74.6h3.5l2.3 15h-2l-.1-1-2.6.1-.2 1h-2.4Zm3.3 12-1.2-8.4-.8 8.6ZM290.8 110h-55a2.8 2.8 0 0 0-2.8-2.8V95.9a2.8 2.8 0 0 0 2.9-2.8h54.9a2.8 2.8 0 0 0 2.8 2.8v11.3a2.8 2.8 0 0 0-2.8 2.8Zm-51.9-11.1a.1.1 0 0 1 .1-.1h1a.3.3 0 0 0 .2 0 .3.3 0 0 0 0-.3c0-.2 0-.3-.2-.3h-3.7a.3.3 0 0 0-.2.1.3.3 0 0 0 0 .2.4.4 0 0 0 0 .2.1.1 0 0 0 0 .1h1l.2.2a.6.6 0 0 1 0 .2v6.7a1.4 1.4 0 0 0 .3.8.6.6 0 0 0 .5.4.6.6 0 0 0 .5-.4 1.7 1.7 0 0 0 .1-.8v-6.8a.4.4 0 0 1 .2-.2Zm3.3-.5a.6.6 0 0 0-.4-.2.7.7 0 0 0-.6.2 1 1 0 0 0-.2.7v6.8a1.6 1.6 0 0 0 .3.8.6.6 0 0 0 .5.3.6.6 0 0 0 .5-.3 1.6 1.6 0 0 0 .2-.8V99a1 1 0 0 0-.3-.7Zm4.2 4.5a.3.3 0 0 0 0-.2.3.3 0 0 0 0-.2.3.3 0 0 0-.2-.1H245c-.2 0-.3-.1-.3-.4v-2.7c0-.3.1-.5.3-.5h1.1a.3.3 0 0 0 .2 0 .3.3 0 0 0 0-.3.5.5 0 0 0 0-.2.2.2 0 0 0-.1 0H244a.6.6 0 0 0-.5.3 1.4 1.4 0 0 0-.2.7v6.8a1 1 0 0 0 .3.7.9.9 0 0 0 .6.3h2.4a.3.3 0 0 0 .2-.1.3.3 0 0 0 .1-.2c0-.2-.1-.4-.4-.4a3.2 3.2 0 0 1-.5 0h-.5a.7.7 0 0 1-.5-.2 1 1 0 0 1-.2-.7v-2.2a.2.2 0 0 1 0-.2.2.2 0 0 1 .2-.1h1.1a.3.3 0 0 0 .3-.1Zm1.3 4a.2.2 0 0 0 .2.1l.1-.4v-3.4a.4.4 0 0 1 .1-.3.3.3 0 0 1 .2-.1s.2.1.2.4l1 3.3a.6.6 0 0 0 0 .1 1.3 1.3 0 0 1 0 .2.6.6 0 0 0 0 .2.1.1 0 0 0 .1 0c.1 0 .2 0 .3-.3l1-3.7c0-.3 0-.4.2-.4s.2.1.2.3v3.1a1.3 1.3 0 0 0 .3.8.5.5 0 0 0 .4.3.6.6 0 0 0 .5-.3 1.2 1.2 0 0 0 .2-.7v-6.9a1.2 1.2 0 0 0-.2-.7.6.6 0 0 0-.5-.3q-.5 0-.7 1l-1 3.6c0 .3-.1.5-.2.5l-.3-.5-1-3.7q-.2-.8-.7-.8c-.4 0-.7.4-.7 1v7.3a.6.6 0 0 0 .3.3Zm6.6-8.3a1.7 1.7 0 0 0-.5 1.3v5.5a1.8 1.8 0 0 1 0 .3 2.5 2.5 0 0 0 .1.9.7.7 0 0 0 .6.4h.1a.5.5 0 0 0 .4-.2 1.1 1.1 0 0 0 .2-.7v-1.7h.4a1.5 1.5 0 0 0 1.5-1.6v-3.2c0-1-.6-1.4-1.7-1.4a1.5 1.5 0 0 0-1.1.5Zm.7.3a.5.5 0 0 1 .4.3 1.6 1.6 0 0 1 .3.9v2.6a1 1 0 0 1-.2.7.6.6 0 0 1-.5.2.6.6 0 0 1-.5-.2 1 1 0 0 1-.2-.7v-2.9a1.1 1.1 0 0 1 .1-.6.7.7 0 0 1 .5-.3Zm3 7.3a1.5 1.5 0 0 0 .6.6 1.5 1.5 0 0 0 .7.2 1.5 1.5 0 0 0 1.3-.5 2.2 2.2 0 0 0 .3-1.4V100a2.3 2.3 0 0 0-.2-1 1.4 1.4 0 0 0-.6-.6 1.6 1.6 0 0 0-.8-.2 1.8 1.8 0 0 0-1 .4 1.3 1.3 0 0 0-.5 1v5.5a2 2 0 0 0 .2 1.1Zm2.4-.3a.7.7 0 0 1-.5.4.6.6 0 0 1-.6-.3 1.4 1.4 0 0 1-.2-.9v-5a1.4 1.4 0 0 1 .2-.8.7.7 0 0 1 .5-.4.5.5 0 0 1 .5.4 2 2 0 0 1 .2 1v4.8a1.8 1.8 0 0 1-.1.8Zm4.2.6a1.4 1.4 0 0 0 1 .5h.2a1.9 1.9 0 0 0 1.1-.5 1.4 1.4 0 0 0 .5-1V104a1.3 1.3 0 0 0-.2-.7.5.5 0 0 0-.4-.3h-.1a.7.7 0 0 0-.5.4 2.4 2.4 0 0 0-.2 1v.9a1 1 0 0 1-.2.7.7.7 0 0 1-.5.3.6.6 0 0 1-.5-.3 1.1 1.1 0 0 1-.2-.8v-5.4a1 1 0 0 1 .2-.6.7.7 0 0 1 .5-.3.6.6 0 0 1 .5.3 1.2 1.2 0 0 1 .2.7v1q0 1.2.7 1.3a.5.5 0 0 0 .5-.3 1.3 1.3 0 0 0 .2-.7v-1.4a1.7 1.7 0 0 0-.2-.9 1.8 1.8 0 0 0-.6-.5 2 2 0 0 0-.8-.2 1.7 1.7 0 0 0-1.2.4 1.5 1.5 0 0 0-.5 1.2v5.5a1.6 1.6 0 0 0 .5 1.3Zm3.7-.3a1.5 1.5 0 0 0 .7.6 1.4 1.4 0 0 0 .7.2 1.5 1.5 0 0 0 1.2-.5 2.2 2.2 0 0 0 .4-1.4V100a2.3 2.3 0 0 0-.2-1 1.4 1.4 0 0 0-.6-.6 1.6 1.6 0 0 0-.8-.2 1.8 1.8 0 0 0-1.1.4 1.3 1.3 0 0 0-.5 1v5.5a2 2 0 0 0 .3 1.1Zm2.4-.3a.7.7 0 0 1-.4.4.6.6 0 0 1-.6-.3 1.3 1.3 0 0 1-.2-.9v-5a1.4 1.4 0 0 1 .2-.8.7.7 0 0 1 .5-.4.5.5 0 0 1 .5.4 2.1 2.1 0 0 1 .2 1v4.8a1.7 1.7 0 0 1-.1.8Zm4.5 1.1.2-.1a2 2 0 0 0 0-.4v-2.6a2 2 0 0 0-.5-1.3 1.6 1.6 0 0 0 .5-1.1V100a1.9 1.9 0 0 0-.3-1 1.6 1.6 0 0 0-.6-.5 1.5 1.5 0 0 0-.7-.2 2 2 0 0 0-1.1.4 1.3 1.3 0 0 0-.6 1v6.2a1.5 1.5 0 0 0 .2.8.6.6 0 0 0 1 0 1.8 1.8 0 0 0 .2-.8V103h.7a.6.6 0 0 1 .5.3 1.2 1.2 0 0 1 .3.8v2.4a1.8 1.8 0 0 0 0 .4.1.1 0 0 0 .1.2Zm-1-8a.6.6 0 0 1 .5.3 1.3 1.3 0 0 1 .2.7v1.3a1.3 1.3 0 0 1-.2.8.6.6 0 0 1-.5.3h-.7V100a1 1 0 0 1 .2-.7.7.7 0 0 1 .5-.3Zm5 8a.1.1 0 0 0 .2 0 2 2 0 0 0 0-.5V104a2 2 0 0 0-.4-1.3 1.6 1.6 0 0 0 .4-1.2V100a1.9 1.9 0 0 0-.2-1 1.5 1.5 0 0 0-.6-.5 1.4 1.4 0 0 0-.8-.2 2 2 0 0 0-1.1.4 1.3 1.3 0 0 0-.5 1v6.2a1.6 1.6 0 0 0 .2.8.6.6 0 0 0 .5.3.6.6 0 0 0 .5-.3 1.7 1.7 0 0 0 .2-.8V103h.7a.6.6 0 0 1 .5.3 1.3 1.3 0 0 1 .2.8v2.4a1.7 1.7 0 0 0 0 .4.1.1 0 0 0 .2.2Zm-1-8a.5.5 0 0 1 .5.3 1.3 1.3 0 0 1 .2.7v1.3a1.2 1.2 0 0 1-.2.8.6.6 0 0 1-.5.3h-.7V100a1 1 0 0 1 .2-.7.7.7 0 0 1 .5-.3Zm3.2-.6a.6.6 0 0 0-.5-.2.7.7 0 0 0-.5.2 1 1 0 0 0-.3.7v6.8a1.6 1.6 0 0 0 .3.8.6.6 0 0 0 .5.3.6.6 0 0 0 .5-.3 1.6 1.6 0 0 0 .2-.8V99a1 1 0 0 0-.2-.7Zm3.6 8.6h.3a.7.7 0 0 0 .5-.3 1.3 1.3 0 0 0 .2-.7v-5.8a2 2 0 0 0-.3-1.3 1.7 1.7 0 0 0-.8-.6 2.6 2.6 0 0 0-.6-.1 1.5 1.5 0 0 0-.8.2 1.6 1.6 0 0 0-.6.6 1.8 1.8 0 0 0-.2.9v7.1Zm-1.6-7.8a.8.8 0 0 1 .4-.2.7.7 0 0 1 .6.3 1.2 1.2 0 0 1 .2.8v5a1.9 1.9 0 0 1-.2.9.6.6 0 0 1-.5.4h-.8v-6.7a.6.6 0 0 1 .2-.5Zm3.5 7a1.5 1.5 0 0 0 .7.6 1.5 1.5 0 0 0 .6.2h.1a1.6 1.6 0 0 0 1.2-.5 2.3 2.3 0 0 0 .3-1.4V100a2.3 2.3 0 0 0-.1-1 1.4 1.4 0 0 0-.6-.6 1.6 1.6 0 0 0-.8-.2 1.7 1.7 0 0 0-1.1.4 1.3 1.3 0 0 0-.5 1v5.5a2 2 0 0 0 .2 1.1Zm2.4-.3a.7.7 0 0 1-.4.4h-.1a.6.6 0 0 1-.5-.3 1.4 1.4 0 0 1-.3-.9v-5a1.4 1.4 0 0 1 .2-.9.7.7 0 0 1 .5-.3h.1a.5.5 0 0 1 .5.3 2 2 0 0 1 .2 1v5a1.8 1.8 0 0 1-.2.7Z"/><path class="prefix__a2fb353c-e1dd-4c17-848c-b1f9b9fd5c71" transform="rotate(-90 308.8 111.6)" d="M308.2 105.7H309.3V117.6H308.2z"/><path class="prefix__a2fb353c-e1dd-4c17-848c-b1f9b9fd5c71" transform="rotate(-90 308.8 104.4)" d="M307.6 98.4H310V110.3H307.6z"/><path class="prefix__a2fb353c-e1dd-4c17-848c-b1f9b9fd5c71" transform="rotate(-90 308.8 107)" d="M308.4 101.1H309.2V113H308.4z"/><path class="prefix__a2fb353c-e1dd-4c17-848c-b1f9b9fd5c71" transform="rotate(-90 308.8 92.4)" d="M308.1 86.5H309.5V98.4H308.1z"/><path class="prefix__a2fb353c-e1dd-4c17-848c-b1f9b9fd5c71" transform="rotate(-90 308.8 98)" d="M308.4 92H309.2V103.9H308.4z"/><path class="prefix__a2fb353c-e1dd-4c17-848c-b1f9b9fd5c71" transform="rotate(-90 308.8 109.2)" d="M307.9 103.3H309.8V115.2H307.9z"/><path class="prefix__a2fb353c-e1dd-4c17-848c-b1f9b9fd5c71" transform="rotate(-90 308.8 100.7)" d="M307.3 94.8H310.3V106.7H307.3z"/><path class="prefix__a2fb353c-e1dd-4c17-848c-b1f9b9fd5c71" transform="rotate(-90 308.8 95.2)" d="M307.5 89.3H310V101.2H307.5z"/><path class="prefix__a2fb353c-e1dd-4c17-848c-b1f9b9fd5c71" transform="rotate(-90 308.8 90.3)" d="M308.2 84.3H309.3V96.2H308.2z"/><path class="prefix__a2fb353c-e1dd-4c17-848c-b1f9b9fd5c71" transform="rotate(-90 308.8 83)" d="M307.6 77.1H310V89H307.6z"/><path class="prefix__a2fb353c-e1dd-4c17-848c-b1f9b9fd5c71" transform="rotate(-90 308.8 85.7)" d="M308.4 79.7H309.2V91.6H308.4z"/><path class="prefix__a2fb353c-e1dd-4c17-848c-b1f9b9fd5c71" transform="rotate(-90 308.8 71)" d="M308.1 65.1H309.5V77H308.1z"/><path class="prefix__a2fb353c-e1dd-4c17-848c-b1f9b9fd5c71" transform="rotate(-90 308.8 76.6)" d="M308.4 70.7H309.2V82.6H308.4z"/><path class="prefix__a2fb353c-e1dd-4c17-848c-b1f9b9fd5c71" transform="rotate(-90 308.8 87.9)" d="M307.9 82H309.8V93.9H307.9z"/><path class="prefix__a2fb353c-e1dd-4c17-848c-b1f9b9fd5c71" transform="rotate(-90 308.8 79.4)" d="M307.3 73.4H310.3V85.3H307.3z"/><path class="prefix__a2fb353c-e1dd-4c17-848c-b1f9b9fd5c71" transform="rotate(-90 308.8 73.9)" d="M307.5 67.9H310V79.8H307.5z"/><path class="prefix__bfc4d32c-6665-4a95-b240-c6d74aa62606" d="M235.5 69.6 290.3 69.6"/><path class="prefix__bfc4d32c-6665-4a95-b240-c6d74aa62606" d="M239.1 66.9 286.7 66.9"/><path class="prefix__bfc4d32c-6665-4a95-b240-c6d74aa62606" d="M290.3 113.2 235.5 113.2"/><path class="prefix__bfc4d32c-6665-4a95-b240-c6d74aa62606" d="M286.7 115.8 239.1 115.8"/><path d="M146.5 57.2h-25.3a3.6 3.6 0 1 1-7.2 0H42c0 4-2.8 7.2-6.3 7.2V119c3.5 0 6.3 3.2 6.3 7.2H114a3.6 3.6 0 1 1 7.1 0h25.3c0-4 2.8-7.2 6.2-7.2V64.4c-3.4 0-6.2-3.2-6.2-7.2Zm-28.9 59.5a4.2 4.2 0 1 1 3.6-4 3.9 3.9 0 0 1-3.6 4Zm0-13.8a4.2 4.2 0 1 1 3.6-4.1 3.9 3.9 0 0 1-3.6 4.1Zm0-13.8a4.2 4.2 0 1 1 3.6-4.2 3.9 3.9 0 0 1-3.6 4.1Zm0-13.9a4.2 4.2 0 1 1 3.6-4.1 3.9 3.9 0 0 1-3.6 4.1Z" stroke="#fff9f1" fill="none" stroke-miterlimit="10"/><path class="prefix__a2fb353c-e1dd-4c17-848c-b1f9b9fd5c71" d="M44 70h3.2v17.9H44V73.6H42ZM63 70h3.2v13.7l2.3-.1V69.9h3.3v18h-3.3v-2l-2.3.1v1.8H63ZM75.6 69.9h4.2a2.3 2.3 0 0 1 1.4.5 1.4 1.4 0 0 1 .6 1.1v14.8a1.4 1.4 0 0 1-.6 1.1 2.3 2.3 0 0 1-1.4.5h-4.2a2.3 2.3 0 0 1-1.4-.5 1.4 1.4 0 0 1-.6-1.1V71.5a1.4 1.4 0 0 1 .6-1.1 2.3 2.3 0 0 1 1.4-.5Zm1 1.9V86h2.1V71.8ZM83.5 70H89a2.3 2.3 0 0 1 1.8 1.7 43 43 0 0 1 .7 9.8 2.2 2.2 0 0 1-1.5 2.1l-.3.1 2.6 4.3-3 1.3-2.5-4.5h-.2v3h-3.2Zm3.2 3v8.5l1-.4q.7-.3.8-.8a28 28 0 0 0 0-3.3 15.5 15.5 0 0 0-.6-3.3.8.8 0 0 0-.9-.6ZM95.5 70h4.7l3 17.9h-2.6l-.2-1.4-3.4.2-.1 1.2h-3.3Zm4.5 14.2-1.6-10-1.2 10.2ZM107.5 114.7H41a2.8 2.8 0 0 0-2.8-2.8V97a2.8 2.8 0 0 0 2.8-2.9h66.5a2.8 2.8 0 0 0 2.9 2.9v14.7a2.8 2.8 0 0 0-2.9 2.9ZM43 100a.2.2 0 0 1 .1-.1h1.1a.4.4 0 0 0 .3-.1.3.3 0 0 0 0-.2c0-.3 0-.4-.2-.4h-4.5a.3.3 0 0 0-.2.1.4.4 0 0 0 0 .3.5.5 0 0 0 0 .2l.2.1h1.2l.1.2a.9.9 0 0 1 0 .3v8a1.8 1.8 0 0 0 .4 1 .7.7 0 0 0 .6.4.7.7 0 0 0 .6-.4 2 2 0 0 0 .2-1v-8a.6.6 0 0 1 0-.4Zm4-.6a.8.8 0 0 0-.6-.3.9.9 0 0 0-.6.4 1.2 1.2 0 0 0-.3.7v8a1.8 1.8 0 0 0 .3 1 .7.7 0 0 0 .6.4.7.7 0 0 0 .6-.4 1.9 1.9 0 0 0 .3-1v-8a1.2 1.2 0 0 0-.3-.8Zm5 5.3a.4.4 0 0 0 0-.2.3.3 0 0 0-.1-.3.3.3 0 0 0-.2 0h-1.4c-.2 0-.3-.2-.3-.5v-3.2c0-.3 0-.5.3-.5h1.3a.3.3 0 0 0 .3-.1.3.3 0 0 0 0-.3.5.5 0 0 0 0-.2.2.2 0 0 0-.2-.1h-2.5a.7.7 0 0 0-.7.4 1.6 1.6 0 0 0-.2.9v8a1.2 1.2 0 0 0 .3.9 1 1 0 0 0 .8.3H52a.4.4 0 0 0 .3-.1.4.4 0 0 0 0-.3c0-.3 0-.4-.4-.4h-1.2a.8.8 0 0 1-.6-.3 1.2 1.2 0 0 1-.3-.8v-2.6a.3.3 0 0 1 .1-.3.3.3 0 0 1 .2-.1h1.3a.4.4 0 0 0 .3-.2Zm1.5 4.8a.3.3 0 0 0 .2.1c.2 0 .2-.1.2-.4V105a.5.5 0 0 1 .1-.3.3.3 0 0 1 .2-.2c.2 0 .3.2.3.5l1.1 4a1 1 0 0 0 0 .1v.2a.7.7 0 0 0 .1.2.2.2 0 0 0 .1 0c.2 0 .3 0 .4-.3l1-4.3.4-.6a.4.4 0 0 1 .3.4v3.7a1.6 1.6 0 0 0 .3.8.7.7 0 0 0 .5.4.7.7 0 0 0 .6-.3 1.3 1.3 0 0 0 .3-.8v-8.1a1.4 1.4 0 0 0-.3-.9.7.7 0 0 0-.6-.3c-.4 0-.7.4-.9 1.1l-1 4.2c-.1.4-.3.6-.4.6s-.3-.2-.4-.5l-.9-4.5c-.2-.6-.4-1-.8-1-.6 0-.8.5-.8 1.2v8.7a.6.6 0 0 0 0 .4Zm7.9-9.8a2 2 0 0 0-.6 1.5v6.6a2.6 2.6 0 0 1 0 .3 3 3 0 0 0 .2 1 .8.8 0 0 0 .7.5h.1a.7.7 0 0 0 .5-.3 1.4 1.4 0 0 0 .3-.8v-2h.3a1.9 1.9 0 0 0 1.3-.5 1.8 1.8 0 0 0 .6-1.4v-3.8c0-1-.7-1.6-2-1.6a1.9 1.9 0 0 0-1.4.5Zm.8.3a.7.7 0 0 1 .6.4 2 2 0 0 1 .3 1v3.1a1.2 1.2 0 0 1-.3.8.7.7 0 0 1-.6.3.7.7 0 0 1-.5-.3 1.2 1.2 0 0 1-.3-.8v-3.4a1.4 1.4 0 0 1 .2-.7.8.8 0 0 1 .6-.4Zm3.6 8.7a1.8 1.8 0 0 0 .8.7 1.7 1.7 0 0 0 .8.2h.1a1.8 1.8 0 0 0 1.4-.6 2.5 2.5 0 0 0 .4-1.6v-6a2.8 2.8 0 0 0-.2-1.2 1.6 1.6 0 0 0-.7-.8 1.9 1.9 0 0 0-1-.2 2.1 2.1 0 0 0-1.2.5 1.5 1.5 0 0 0-.6 1.2v6.5a2.4 2.4 0 0 0 .2 1.3Zm3-.4a.8.8 0 0 1-.6.5H68a.7.7 0 0 1-.6-.4 1.6 1.6 0 0 1-.3-1v-6a1.7 1.7 0 0 1 .3-1 .8.8 0 0 1 .5-.4h.1a.7.7 0 0 1 .6.4 2.5 2.5 0 0 1 .2 1.2v5.8a2 2 0 0 1-.2.9Zm5-8.6a2 2 0 0 0-.5 1.5v6.6a1.3 1.3 0 0 1 0 .3 2.8 2.8 0 0 0 .1 1 .8.8 0 0 0 .7.5h.1a.6.6 0 0 0 .5-.3 1.3 1.3 0 0 0 .3-.8v-2h.4a1.9 1.9 0 0 0 1.2-.5 1.8 1.8 0 0 0 .6-1.4v-3.8c0-1-.7-1.6-2-1.6a1.8 1.8 0 0 0-1.4.5Zm.9.3a.7.7 0 0 1 .5.4 1.9 1.9 0 0 1 .3 1v3.1a1.2 1.2 0 0 1-.3.8.8.8 0 0 1-.5.3.8.8 0 0 1-.6-.3 1.3 1.3 0 0 1-.3-.8v-3.4a1.3 1.3 0 0 1 .3-.7.8.8 0 0 1 .5-.4Zm3.4 8.6v.2a1.8 1.8 0 0 0-.2.5c0 .2.1.3.3.3a.2.2 0 0 0 .2 0 .7.7 0 0 0 0-.3l.1-.3.4-1.3c0-.2.1-.3.3-.3H81c.2 0 .3.1.4.5l.2 1c.2.4.4.7.8.7a.8.8 0 0 0 .7-.4 1.1 1.1 0 0 0 .2-.7 3.2 3.2 0 0 0-.2-.9l-2.1-8c-.1-.3-.3-.5-.4-.5a.3.3 0 0 0-.2.2 2.2 2.2 0 0 0-.1.4l-2.2 8.7-.1.2Zm2-5a.2.2 0 0 1 .2.2 2 2 0 0 1 .1.4l.5 1.7a.5.5 0 0 0 0 .1 1.4 1.4 0 0 1 0 .2.6.6 0 0 1 0 .3.2.2 0 0 1-.2.1h-1.1a.2.2 0 0 1-.2 0 1.2 1.2 0 0 1-.1-.4.7.7 0 0 0 0-.2l.5-1.9c0-.2.1-.4.3-.4Zm4.8 5.5a2 2 0 0 0 1.2.5h.1a2 2 0 0 0 1.4-.5 1.8 1.8 0 0 0 .6-1.5v-7.8a1.2 1.2 0 0 0 0-.4c0-.2-.2-.2-.3-.2-.1 0-.2.2-.2.5v8a1.2 1.2 0 0 1-.3.7.7.7 0 0 1-.6.3.7.7 0 0 1-.5-.3 1.4 1.4 0 0 1-.2-.8v-7a1.8 1.8 0 0 0-.3-1 .7.7 0 0 0-.6-.3.7.7 0 0 0-.6.3 1.6 1.6 0 0 0-.3 1v7.3a1.6 1.6 0 0 0 .6 1.2Zm6.8-6.1a.8.8 0 0 0 .6.3.8.8 0 0 0 .5-.4 1.2 1.2 0 0 0 .3-.8V101a1.5 1.5 0 0 0-.6-1.2 2.2 2.2 0 0 0-1.4-.5 2 2 0 0 0-1 .2 2 2 0 0 0-.7.7 2.2 2.2 0 0 0-.3 1.2v1.7a2.1 2.1 0 0 0 .8 1.8l2 1.5c.4.4.6.7.6 1v.5a1 1 0 0 1-.2.6.7.7 0 0 1-.6.4.7.7 0 0 1-.6-.4 1 1 0 0 1-.3-.6v-.9a1.8 1.8 0 0 0-.2-.9.7.7 0 0 0-.6-.4.8.8 0 0 0-.6.3 1.1 1.1 0 0 0-.2.7v1.5a1.3 1.3 0 0 0 .6 1.1 2 2 0 0 0 1.1.4h.2a2.2 2.2 0 0 0 1.3-.5 1.6 1.6 0 0 0 .6-1.4v-2a2 2 0 0 0-.7-1.6l-2-1.5a1.5 1.5 0 0 1-.7-1.2 1.4 1.4 0 0 1 .2-.8.8.8 0 0 1 .7-.4.8.8 0 0 1 .6.3 1.3 1.3 0 0 1 .2.8v1a1 1 0 0 0 .4.7Zm2.5 5.6-.1.2a1.8 1.8 0 0 0 0 .5l.1.3a.2.2 0 0 0 .2 0 .7.7 0 0 0 .1-.3l.1-.3.3-1.3c.1-.2.2-.3.4-.3H97c.2 0 .3.2.4.5l.2 1q.2.7.8.7a.8.8 0 0 0 .6-.3 1.1 1.1 0 0 0 .3-.8 3.3 3.3 0 0 0-.2-.9l-2.1-8c-.1-.3-.3-.5-.4-.5a.3.3 0 0 0-.2.2 1.8 1.8 0 0 0-.1.4l-2.2 8.7v.2Zm2-4.9a.2.2 0 0 1 .2.1 2.5 2.5 0 0 1 .1.5l.5 1.6v.4a.5.5 0 0 1-.1.2.2.2 0 0 1-.2.2h-1a.2.2 0 0 1-.3-.2 2.6 2.6 0 0 1 0-.3.5.5 0 0 0 0-.2l.4-1.9c0-.2.2-.4.3-.4Zm7 6h.4a.8.8 0 0 0 .7-.4 1.3 1.3 0 0 0 .2-.8v-7a2.4 2.4 0 0 0-.4-1.5 2 2 0 0 0-1-.7 2.9 2.9 0 0 0-.7 0 2 2 0 0 0-1 .2 2 2 0 0 0-.6.6 2.1 2.1 0 0 0-.3 1.1v8.4Zm-2-9.3a1 1 0 0 1 .7-.2.8.8 0 0 1 .6.3 1.4 1.4 0 0 1 .3 1v6a2 2 0 0 1-.2 1 .7.7 0 0 1-.7.3h-.9V101a.8.8 0 0 1 .3-.6Zm4.4 8.3a1.8 1.8 0 0 0 1.5 1h.2a1.8 1.8 0 0 0 1.4-.7 2.5 2.5 0 0 0 .4-1.6v-6a2.7 2.7 0 0 0-.3-1.2 1.6 1.6 0 0 0-.6-.8 1.8 1.8 0 0 0-1-.2 2 2 0 0 0-1.3.5 1.5 1.5 0 0 0-.6 1.2v6.5a2.5 2.5 0 0 0 .3 1.3Zm2.8-.4a.8.8 0 0 1-.5.5h-.1a.8.8 0 0 1-.6-.4 1.7 1.7 0 0 1-.3-1v-6a1.7 1.7 0 0 1 .2-1 .8.8 0 0 1 .6-.4h.1a.7.7 0 0 1 .6.4 2.5 2.5 0 0 1 .2 1.2v5.8a2.1 2.1 0 0 1-.1.9Z"/><path class="prefix__bfc4d32c-6665-4a95-b240-c6d74aa62606" d="M43 65.3 108.3 65.3"/><path class="prefix__bfc4d32c-6665-4a95-b240-c6d74aa62606" d="M47.3 62.1 104 62.1"/><path class="prefix__bfc4d32c-6665-4a95-b240-c6d74aa62606" d="M108.3 118.1 43 118.1"/><path class="prefix__bfc4d32c-6665-4a95-b240-c6d74aa62606" d="M104 121.3 47.3 121.3"/><rect x="8.9" y="7" width="323.5" height="252.5" rx="11.5" stroke-width="3" stroke-dasharray="5.03 10.06" stroke="#fff" fill="none" stroke-miterlimit="10"/><path class="prefix__a2fb353c-e1dd-4c17-848c-b1f9b9fd5c71" d="M57.5 33.5V38H53V18.1h10.3V21h-6v10l3.5-.2v2.6ZM66.7 38V18.1h4.4V38ZM77 18.2h5.7a3.5 3.5 0 0 1 2 .6 1.5 1.5 0 0 1 .8 1.2v2.1h-4.2v-1.7h-2.9V36h2.9v-1h4.2v1.3a1.5 1.5 0 0 1-.9 1.3 3.5 3.5 0 0 1-2 .5h-5.5a3.5 3.5 0 0 1-2-.5 1.5 1.5 0 0 1-.9-1.3V20a1.5 1.5 0 0 1 .8-1.3 3.5 3.5 0 0 1 2-.5ZM87.7 18.1h4.4v15.3l3.1-.1V18h4.5V38h-4.5v-2.1l-3 .1v2h-4.5ZM104.8 18.1h6.3l4 19.9h-3.4l-.3-1.5-4.7.3-.1 1.2H102Zm6 15.9-2.2-11-1.6 11.2ZM128.5 19v3.5H124v-2a3.8 3.8 0 0 0-1.4-.4 3.3 3.3 0 0 0-1.3.3v3.8l5.9.7a1.9 1.9 0 0 1 1 .3 1 1 0 0 1 .2.8v11.2c0 .5-.8.9-2.4 1.1a22.9 22.9 0 0 1-3.4.3 21 21 0 0 1-3.4-.3c-1.5-.2-2.3-.6-2.3-1.2v-6.3h4.4v5.1a3.9 3.9 0 0 0 1.3.3 4.2 4.2 0 0 0 1.4-.3v-8.5l-6-.7c-.8-.1-1.2-.5-1.2-1v-6.6c0-.5.8-1 2.4-1.2a21.8 21.8 0 0 1 3.5-.4 17.5 17.5 0 0 1 3.9.4c1.3.3 1.9.6 1.9 1.2ZM140 18.3h7.7c1.4.4 2.2 1 2.4 2q1.3 4.8 1 14.2c0 1-.7 1.9-2 2.3a24 24 0 0 1-4.4 1.1 34.2 34.2 0 0 1-4.6.3Zm4.4 2.5v14.5l1.4-.4c.6-.1 1-.5 1-1l.1-2.6a65.6 65.6 0 0 0-.3-7.2 12.7 12.7 0 0 0-.5-2.6c-.2-.5-.6-.7-1.2-.7ZM153.8 38V18.1h4.4V38ZM172.8 19v3.5h-4.4v-2a3.8 3.8 0 0 0-1.4-.4 3.3 3.3 0 0 0-1.3.3v3.8l5.9.7a1.9 1.9 0 0 1 1 .3 1 1 0 0 1 .2.8v11.2c0 .5-.8.9-2.5 1.1a22.9 22.9 0 0 1-3.3.3 21 21 0 0 1-3.4-.3c-1.6-.2-2.3-.6-2.3-1.2v-6.3h4.4v5.1a3.9 3.9 0 0 0 1.3.3 4.2 4.2 0 0 0 1.3-.3v-8.5l-6-.7c-.7-.1-1-.5-1-1v-6.6c0-.5.7-1 2.3-1.2a21.8 21.8 0 0 1 3.4-.4 17.5 17.5 0 0 1 4 .4c1.2.3 1.8.6 1.8 1.2ZM175.3 18.1H183q2 .5 2.4 2a40.2 40.2 0 0 1 1 10.9c0 1-.7 1.8-2 2.3l-4.6 1.4V38h-4.4Zm4.4 3.5v9.3l1.5-.4c.6-.2 1-.5 1-1a33.2 33.2 0 0 0 0-3.6 12.8 12.8 0 0 0-.9-3.7c-.1-.4-.5-.6-1.1-.6ZM191.8 18h5.6a3.5 3.5 0 0 1 2 .6 1.5 1.5 0 0 1 .8 1.3v16.4a1.5 1.5 0 0 1-.8 1.3 3.5 3.5 0 0 1-2 .5h-5.6a3.6 3.6 0 0 1-2-.5 1.5 1.5 0 0 1-.8-1.3V19.9a1.5 1.5 0 0 1 .8-1.3 3.6 3.6 0 0 1 2-.5Zm1.4 2.2V36h2.8V20.2ZM202.6 18.1h4.4a30.2 30.2 0 0 1 4.8.3c1.8.3 2.8 1 3 2V38h-4.5V20.9a3.9 3.9 0 0 0-2.4-.6 4.4 4.4 0 0 0-.9.1V38h-4.4ZM217.4 38V18.1h4.3V38ZM224.9 18.1h7.7c1.4.4 2.2 1 2.4 2a39.5 39.5 0 0 1 1 10.9 2.3 2.3 0 0 1-1.5 2l1.5 1.8a1.5 1.5 0 0 1 .5 1 1.6 1.6 0 0 1-.4 1A3.5 3.5 0 0 1 234 38l-9.1-.1Zm4.5 2.6v10.2l1.4-.4c.6-.2.9-.5 1-1a38 38 0 0 0 0-4 14.6 14.6 0 0 0-.8-4.2c-.1-.4-.5-.6-1.2-.6Zm1.4 13.5-1.4.5v1h3ZM238.5 18.1h4.4v17h6.6V38h-11ZM257 33.5v1.6h5.8V38h-10.2V18.1h10.3V21H257v10l3.4-.2v2.6ZM277.6 19v3.5h-4.4v-2a3.8 3.8 0 0 0-1.4-.4 3.3 3.3 0 0 0-1.3.3v3.8l5.9.7a1.9 1.9 0 0 1 1 .3 1 1 0 0 1 .2.8v11.2c0 .5-.8.9-2.5 1.1a22.9 22.9 0 0 1-3.3.3 21 21 0 0 1-3.4-.3c-1.6-.2-2.3-.6-2.3-1.2v-6.3h4.4v5.1a3.9 3.9 0 0 0 1.3.3 4.2 4.2 0 0 0 1.3-.3v-8.5l-6-.7c-.7-.1-1-.5-1-1v-6.6c0-.5.7-1 2.3-1.2a21.8 21.8 0 0 1 3.4-.4 17.5 17.5 0 0 1 4 .4c1.2.3 1.8.6 1.8 1.2ZM48 156.3h4.7a31.2 31.2 0 0 1 5 .3c2 .4 3 1 3.1 2v18.2h-4.7v-17.6a4.2 4.2 0 0 0-2.4-.6 4.9 4.9 0 0 0-1 .1v18.1H48ZM68 156.5v18.3h3v-18.3h4.3v18.7a1.6 1.6 0 0 1-.8 1.3 3.8 3.8 0 0 1-2.1.5h-6a3.7 3.7 0 0 1-2-.5 1.6 1.6 0 0 1-.9-1.3v-18.7ZM82.4 172.2v1.7h6.1v3H77.8v-20.6h10.7v3h-6v10.3l3.4-.2v2.6ZM104 157.3v3.6h-4.7v-2.2a4.2 4.2 0 0 0-1.4-.3 3.6 3.6 0 0 0-1.4.3v3.9l6.2.7a2 2 0 0 1 1 .4 1.1 1.1 0 0 1 .3.8V176c0 .5-.9 1-2.6 1.2a23.8 23.8 0 0 1-3.5.2 21.7 21.7 0 0 1-3.6-.2c-1.6-.3-2.4-.7-2.4-1.3v-6.5h4.6v5.3a4 4 0 0 0 1.4.3 4.4 4.4 0 0 0 1.4-.3V166l-6.2-.8c-.8-.1-1.2-.5-1.2-1v-6.8c0-.5.9-1 2.5-1.2a22.5 22.5 0 0 1 3.6-.4 19 19 0 0 1 4 .4c1.3.2 2 .6 2 1.1ZM114.7 159.5V177H110v-17.5h-3.3v-3H118v3ZM120.2 156.4h8.1c1.4.4 2.3 1 2.5 2a39.4 39.4 0 0 1 1 11.3c0 1.1-.7 1.9-2.1 2.4h-.5l3.7 5-4.4 1.5-3.4-5.2-.3.1v3.4h-4.6Zm4.6 3.6v9.6l1.5-.4c.7-.3 1-.6 1-1a26.7 26.7 0 0 0 0-3.8 14.7 14.7 0 0 0-.8-3.7c-.2-.4-.6-.7-1.2-.7ZM137.5 156.3h5.8a3.8 3.8 0 0 1 2.1.6 1.6 1.6 0 0 1 .9 1.3V175a1.6 1.6 0 0 1-.9 1.3 3.8 3.8 0 0 1-2 .6h-6a3.8 3.8 0 0 1-2-.6 1.6 1.6 0 0 1-.9-1.3v-16.8a1.6 1.6 0 0 1 .9-1.3 3.8 3.8 0 0 1 2-.6Zm1.4 2.2v16.2h3v-16.2ZM160.8 157.3v3.6h-4.7v-2.2a4.2 4.2 0 0 0-1.4-.3 3.6 3.6 0 0 0-1.4.3v3.9l6.2.7a2 2 0 0 1 1 .4 1.1 1.1 0 0 1 .3.8V176c0 .5-.8 1-2.6 1.2a23.8 23.8 0 0 1-3.5.2 21.7 21.7 0 0 1-3.5-.2c-1.7-.3-2.5-.7-2.5-1.3v-6.5h4.6v5.3a4 4 0 0 0 1.4.3 4.4 4.4 0 0 0 1.4-.3V166l-6.2-.8c-.8-.1-1.2-.5-1.2-1v-6.8c0-.5.9-1 2.5-1.2a22.5 22.5 0 0 1 3.6-.4 19 19 0 0 1 4.1.4c1.3.2 1.9.6 1.9 1.1ZM185.1 157.3v3.6h-4.6v-2.2a4.2 4.2 0 0 0-1.5-.3 3.6 3.6 0 0 0-1.4.3v3.9l6.2.7a2 2 0 0 1 1 .4 1.1 1.1 0 0 1 .3.8V176c0 .5-.8 1-2.5 1.2a23.8 23.8 0 0 1-3.6.2 21.7 21.7 0 0 1-3.5-.2c-1.6-.3-2.4-.7-2.4-1.3v-6.5h4.6v5.3a4 4 0 0 0 1.3.3 4.4 4.4 0 0 0 1.5-.3V166l-6.3-.8c-.7-.1-1.1-.5-1.1-1v-6.8c0-.5.8-1 2.5-1.2a22.5 22.5 0 0 1 3.5-.4 19 19 0 0 1 4.1.4c1.3.2 2 .6 2 1.1ZM192.5 172.2v1.7h6.1v3h-10.8v-20.6h10.8v3h-6.1v10.3l3.5-.2v2.6ZM201.9 156.4h8c1.4.4 2.3 1 2.5 2a39.4 39.4 0 0 1 1 11.3c0 1.1-.7 1.9-2.1 2.4h-.5l3.7 5-4.4 1.5-3.4-5.2-.3.1v3.4H202Zm4.6 3.6v9.6l1.4-.4c.7-.3 1-.6 1-1a25.2 25.2 0 0 0 0-3.8 14.7 14.7 0 0 0-.8-3.7c-.1-.4-.5-.7-1.2-.7ZM229.5 156.6l-3.5 20.3h-6.3l-3.5-20.3 4.7-.4 2 11.6 2-11.6ZM231.7 176.8v-20.5h4.5v20.5ZM242.4 156.5h6a3.9 3.9 0 0 1 2 .5 1.6 1.6 0 0 1 .8 1.3v2.2H247v-1.8h-3v16.1h3v-1h4.3v1.4a1.6 1.6 0 0 1-.8 1.3 3.8 3.8 0 0 1-2 .5h-6a3.8 3.8 0 0 1-2-.5 1.6 1.6 0 0 1-.9-1.3v-16.9a1.6 1.6 0 0 1 .9-1.3 3.9 3.9 0 0 1 2-.5ZM253.7 176.8v-20.5h4.6v20.5ZM264.5 156.3h5.8a3.8 3.8 0 0 1 2.1.6 1.6 1.6 0 0 1 .9 1.3V175a1.6 1.6 0 0 1-.9 1.3 3.8 3.8 0 0 1-2 .6h-6a3.8 3.8 0 0 1-2-.6 1.6 1.6 0 0 1-.9-1.3v-16.8a1.6 1.6 0 0 1 .9-1.3 3.8 3.8 0 0 1 2-.6Zm1.4 2.2v16.2h3v-16.2ZM287.8 157.3v3.6h-4.7v-2.2a4.2 4.2 0 0 0-1.4-.3 3.5 3.5 0 0 0-1.4.3v3.9l6.2.7a2 2 0 0 1 1 .4 1.1 1.1 0 0 1 .3.8V176q0 .8-2.6 1.2a23.6 23.6 0 0 1-3.5.2 21.7 21.7 0 0 1-3.6-.2c-1.6-.3-2.4-.7-2.4-1.3v-6.5h4.6v5.3a4 4 0 0 0 1.4.3 4.4 4.4 0 0 0 1.4-.3V166l-6.2-.8q-1.2-.2-1.2-1v-6.8c0-.5.9-1 2.5-1.2a22.5 22.5 0 0 1 3.6-.4 19 19 0 0 1 4.1.4c1.3.2 1.9.6 1.9 1.1Z"/><path class="prefix__f227ea9c-22ac-41a6-a06d-8af2aff61dbd" d="m297 234.4 3.2-4.8h4.8l-6.8 9.3-1 5.7h-4l1.1-6.4-2.1-4.2-2.7 3.5 3.6 7.1h-4.9l-2.8-6-1 6h-4.1l.5-3.4c-1 3-3.2 4-6 4a7.3 7.3 0 0 1-5.7-2.5l2.2-3a5.4 5.4 0 0 0 4 1.6c1.2 0 1.8-.4 1.9-1 0-1.2-1.6-1.4-3.1-1.8-1.7-.6-3.5-2-3-4.7.3-2.1 2-4.6 6.1-4.6a8.2 8.2 0 0 1 5.5 1.8l.2-1.4h4.1l-1.2 6.5 4.8-6.5h4.1l2.3 4.8Zm-16.1-.2a7 7 0 0 0-4.2-1.4c-.7 0-1.5.2-1.6 1s.5.9 1.6 1.2c2.2.5 4.4 1.2 4.6 3.7l1.2-6.7-1.6 2.3ZM227.4 230.8a12.3 12.3 0 0 1 1.5-5.5c1-1.8 3.1-3.5 7-5.4s9.9-3 16.2-3.1c1.2 0 5.5-.1 7.6 1.6s2.7 4.8 3 6.5a50.2 50.2 0 0 1-.2 15.4c-.6 4.8-1.4 7.7-7.2 9a40.7 40.7 0 0 1-13 .4c-4-.6-7.6-1.6-9.3-2.6-3.1-1.8-3.6-3.5-4.3-6a29.2 29.2 0 0 1-1.3-10.3Zm3.4 8.6c.4 1.8.8 3.7 3.5 4.8s10.9 2.6 17.3 2.5c5.2.2 5.4-7.7 5.4-7.7a74.6 74.6 0 0 0-.4-12.4 8.3 8.3 0 0 0-2.5-5.2c-1.7-1.4-5.1-1.3-6-1.3a30.7 30.7 0 0 0-12.2 3.2c-3.2 1.5-4.2 2.2-5 3.6a6.9 6.9 0 0 0-.7 3.3 55.5 55.5 0 0 0 .6 9.2Z"/><path class="prefix__f227ea9c-22ac-41a6-a06d-8af2aff61dbd" d="M212.5 217.4 215.5 217.8 217.7 233.1 220.2 218.7 222.9 219.5 218.5 244.3 216.7 244.8 212.5 217.4z"/><path class="prefix__f227ea9c-22ac-41a6-a06d-8af2aff61dbd" d="M221.7 244.2 221.7 228.9 226.5 228.9 226.5 231.7 223.6 231.7 223.6 234.6 226.1 234.3 226.1 237 223.6 237.5 223.6 240.4 226.7 239.6 226.7 242.3 221.7 244.2z"/><path class="prefix__f227ea9c-22ac-41a6-a06d-8af2aff61dbd" d="M232 228.4 232 231.1 235.5 230.8 235.5 241.2 239 241.2 239 230.3 242.6 230 242.6 227.2 232 228.4z"/><path class="prefix__f227ea9c-22ac-41a6-a06d-8af2aff61dbd" d="M242.8 227.2 246.4 226.6 249.2 235.7 252 225.9 255.4 225.6 250.1 242.4 248 242.4 242.8 227.2z"/><path class="prefix__e71b001c-cd7d-48b4-a212-2b6f1e6551d2" d="M72.2 233.6c0 8-6 14.6-15.5 14.6S41 241.7 41 233.6v-.9c0-7.6 7-13.8 15.6-13.8s15.5 6.2 15.5 13.8Zm-15.5-14c-8.3 0-15 6-15 13s6.7 13 15 13 15-5.7 15-13-6.8-13-15-13Z"/><path class="prefix__a2fb353c-e1dd-4c17-848c-b1f9b9fd5c71" d="M51.7 228.6s-.2.3 0 .4a1.5 1.5 0 0 0 1.6.4 5 5 0 0 0 1.6-1.3 6.4 6.4 0 0 1 1.7-1.5 1.6 1.6 0 0 1 1.3 0 3.8 3.8 0 0 1 1.2 1l5.9 6.7a29 29 0 0 1 6.5-2.9 12 12 0 0 0-3-6.7c-2.5 1.4-5.4 2-8.2.2a6.2 6.2 0 0 0-3-1c-2.3.1-3.3 1.4-4.3 2.8Z"/><path class="prefix__a2fb353c-e1dd-4c17-848c-b1f9b9fd5c71" d="M64.8 234.8s-4.8-5.8-6-6.9a2.4 2.4 0 0 0-1.3-.9 1.2 1.2 0 0 0-.6.1 5.8 5.8 0 0 0-1.8 1.4 5 5 0 0 1-1.7 1.5 2.1 2.1 0 0 1-1.9-.4 1 1 0 0 1-.3-.4 1 1 0 0 1 .2-.9l1.3-2 .5-.6a5.9 5.9 0 0 0-1.2.4 4.1 4.1 0 0 1-1.4.3 10.7 10.7 0 0 1-1.5-.3 18.2 18.2 0 0 1-3.8-1.9 12.3 12.3 0 0 0-3.5 7l.9.3c4.3 1.3 5.6 2.6 5.8 2.9a1.3 1.3 0 0 1 1-.7 1.4 1.4 0 0 1 1.2.8 1.4 1.4 0 0 1 1-.4 1.5 1.5 0 0 1 .6 0 1.7 1.7 0 0 1 .9 1.2 1.1 1.1 0 0 1 .6-.2 1.4 1.4 0 0 1 .7.2 2.4 2.4 0 0 1 .8 2.3h.2c1 0 1.7 1 1.7 2.3a3 3 0 0 1-.2 1.1 2.2 2.2 0 0 0 1.5.5.9.9 0 0 0 .6-.4s.1-.1 0-.2L58 239s-.2-.3-.1-.3h.2l1.4 1.8s0 .2.3.2a1 1 0 0 0 1-.2 3 3 0 0 0 .2-.3 1.1 1.1 0 0 0 0-1.1l-1.5-2.1-.1-.3h.3l1.6 2.3a1 1 0 0 0 1.4-.1 1.5 1.5 0 0 0 .5-1.2 1.6 1.6 0 0 0-.3-.8l-1.9-2.6s-.2-.3-.1-.4.2 0 .2.1l2.3 2.8a1 1 0 0 0 1.3 0 1.3 1.3 0 0 0 .4-1 1.6 1.6 0 0 0-.3-1Z"/><path class="prefix__a2fb353c-e1dd-4c17-848c-b1f9b9fd5c71" d="m55.5 238.1-.7.2v-.3s.5-1.7-.5-2.2a1 1 0 0 0-1.3.2 1.5 1.5 0 0 0-.8-1.3 1.3 1.3 0 0 0-1.6.8c0-.7-.5-1.3-1-1.3s-1 .7-1 1.4.4 1.5 1 1.5a1 1 0 0 0 .7-.4 2.1 2.1 0 0 0 .9 2.1.8.8 0 0 0 1-.2 1.4 1.4 0 0 0 .8 1.5.8.8 0 0 0 1-.3l.2.1c0 1 .6 1.7 1.3 1.7s1.3-.8 1.3-1.8-.6-1.7-1.3-1.7Z"/><path class="prefix__e71b001c-cd7d-48b4-a212-2b6f1e6551d2" d="M78.5 225v6.3h-1.8v-5.7c0-2.8 1-4.2 3-4.2a2.8 2.8 0 0 1 2.2.9 2.8 2.8 0 0 1 2.1-.8c2 0 3 1.3 3 4.1v5.8h-1c-.5 0-.8-.5-.8-1.2v-5c0-1-.5-1.6-1.3-1.6s-1.2.5-1.2 1.6v6.2H81V225c0-1-.4-1.5-1.2-1.5s-1.2.5-1.2 1.5ZM95.9 226.3c0-3.1 1.2-4.9 3.6-4.9h.5v2.6h-.8c-1 0-1.5.9-1.5 2.3v5h-1.8ZM110.1 224.5h-1.7c0-1.9.8-3.2 2.8-3.2s3 1 3 2.7v3.4c0 2.6-1.2 3.8-3.1 4-1.7.2-3-.9-3-3 0-2.4 1.4-3 3.2-3.2.8-.2 1.1-.5 1.1-1s-.4-.9-1.1-.9a1.2 1.2 0 0 0-1.2 1.2Zm2.4 2.7v-.8a6.5 6.5 0 0 1-1.4.5 1.3 1.3 0 0 0-1.1 1.4c0 .8.3 1.1.9 1.1 1 0 1.6-.8 1.6-2.2ZM122 218.3v8.8c0 3-1.1 4.4-3.4 4.4s-3.3-1.7-3.3-5 1-5 2.9-5a2.2 2.2 0 0 1 2 1.4v-3.4a2.2 2.2 0 0 1 1.8-1.2Zm-4.8 8.1c0 2 .4 3 1.5 3s1.5-1 1.5-3-.5-2.8-1.5-2.8-1.5 1-1.6 2.8ZM89.9 232.8h.5v13h-1.8v-11.4c0-.3.5-1.6 1.3-1.6ZM99.7 235.7a2.2 2.2 0 0 0-2 1.5V233h-.2A1.8 1.8 0 0 0 96 234v7.4c0 3 1.1 4.4 3.4 4.4s3.3-1.7 3.3-5-1-5-2.9-5Zm-.5 8c-1 0-1.5-1-1.5-3s.5-2.8 1.5-2.8 1.5 1 1.5 2.8-.5 3-1.5 3ZM90.3 228.9a1.5 1.5 0 0 0 1.2.5 1.4 1.4 0 0 0 1-.4 1.6 1.6 0 0 0 .5-.8h1.7a4.5 4.5 0 0 1-1.2 2.5 3 3 0 0 1-2 .7 3 3 0 0 1-1.5-.4 3.2 3.2 0 0 1-1.1-1 5.1 5.1 0 0 1-.7-1.6 7.6 7.6 0 0 1-.3-2 7.3 7.3 0 0 1 .3-2 4.9 4.9 0 0 1 .7-1.6 3.6 3.6 0 0 1 1.1-1 2.8 2.8 0 0 1 1.4-.4 2.6 2.6 0 0 1 1.6.5 3.5 3.5 0 0 1 1 1.2 6.2 6.2 0 0 1 .7 1.8 9.2 9.2 0 0 1 .1 2.1h-5a3.2 3.2 0 0 0 .5 1.9Zm2.1-5a1.2 1.2 0 0 0-1-.5 1.3 1.3 0 0 0-.8.2 1.6 1.6 0 0 0-.5.5 2.2 2.2 0 0 0-.2.7 3.9 3.9 0 0 0-.1.6h3.1a3.6 3.6 0 0 0-.5-1.5ZM104 223.3a1.1 1.1 0 0 0-.7.3 2.1 2.1 0 0 0-.5.8 4.3 4.3 0 0 0-.3 1 8.1 8.1 0 0 0 0 1 7.7 7.7 0 0 0 0 1.1 4.4 4.4 0 0 0 .3 1 1.9 1.9 0 0 0 .5.7 1.1 1.1 0 0 0 .7.3 1.2 1.2 0 0 0 1.1-.5 3 3 0 0 0 .5-1.4h1.8a5 5 0 0 1-1 2.9 3 3 0 0 1-2.4 1 2.9 2.9 0 0 1-1.4-.4 3.2 3.2 0 0 1-1.1-1 5.2 5.2 0 0 1-.8-1.5 7.2 7.2 0 0 1-.2-2 8.5 8.5 0 0 1 .2-2.1 5.4 5.4 0 0 1 .7-1.7 3.4 3.4 0 0 1 1.2-1 3 3 0 0 1 1.5-.5 3.5 3.5 0 0 1 1.2.3 3 3 0 0 1 1 .7 3.6 3.6 0 0 1 .7 1 4.7 4.7 0 0 1 .4 1.7h-2c0-1.1-.5-1.7-1.3-1.7ZM123.4 224.3a4.9 4.9 0 0 1 .7-1.6 3.5 3.5 0 0 1 1.1-1 3 3 0 0 1 1.5-.3 3.2 3.2 0 0 1 1.6.3 3.5 3.5 0 0 1 1.1 1 4.9 4.9 0 0 1 .7 1.6 7.6 7.6 0 0 1 .3 2.1 7.5 7.5 0 0 1-.3 2 4.9 4.9 0 0 1-.7 1.7 3.3 3.3 0 0 1-1.1 1 3.2 3.2 0 0 1-1.6.3 3 3 0 0 1-1.5-.3 3.3 3.3 0 0 1-1.1-1 4.9 4.9 0 0 1-.7-1.6 7.5 7.5 0 0 1-.3-2 7.6 7.6 0 0 1 .3-2.2Zm1.7 3.2a3.3 3.3 0 0 0 .3 1 1.9 1.9 0 0 0 .5.7 1.4 1.4 0 0 0 1.7 0 2 2 0 0 0 .5-.7 3.6 3.6 0 0 0 .3-1 7 7 0 0 0 0-1 7 7 0 0 0 0-1.2 3.4 3.4 0 0 0-.3-1 2 2 0 0 0-.5-.7 1.4 1.4 0 0 0-1.7 0 1.9 1.9 0 0 0-.5.7 3.1 3.1 0 0 0-.3 1 7 7 0 0 0 0 1.1 7 7 0 0 0 0 1.1ZM103.6 240.7c0-3.1 1.2-4.9 3.6-4.9h.6v2.5h-.9c-1 0-1.4 1-1.4 2.4v5h-1.9ZM110.6 243.3a1.5 1.5 0 0 0 1.3.5 1.4 1.4 0 0 0 1-.4 1.6 1.6 0 0 0 .5-.8h1.7a4.5 4.5 0 0 1-1.3 2.4 3 3 0 0 1-2 .8 3 3 0 0 1-1.5-.4 3.2 3.2 0 0 1-1-1 4.9 4.9 0 0 1-.8-1.6 7.6 7.6 0 0 1-.2-2 7.4 7.4 0 0 1 .2-2 5.3 5.3 0 0 1 .7-1.6 3.7 3.7 0 0 1 1.2-1 2.8 2.8 0 0 1 1.4-.4 2.6 2.6 0 0 1 1.6.5 3.4 3.4 0 0 1 1 1.2 6.5 6.5 0 0 1 .7 1.8 9.2 9.2 0 0 1 .1 2.1h-5a3.2 3.2 0 0 0 .4 1.9Zm2.2-5a1.1 1.1 0 0 0-1-.6 1.3 1.3 0 0 0-.8.2 1.6 1.6 0 0 0-.5.6 2.3 2.3 0 0 0-.2.6 3 3 0 0 0-.1.7h3.1a3.6 3.6 0 0 0-.5-1.5Z"/><path class="prefix__e71b001c-cd7d-48b4-a212-2b6f1e6551d2" d="M92.3 232.8H94.1V235H92.3z"/><path class="prefix__e71b001c-cd7d-48b4-a212-2b6f1e6551d2" d="M92.3 236.2H94.1V245.8H92.3z"/><path class="prefix__a2fb353c-e1dd-4c17-848c-b1f9b9fd5c71" d="M190.6 191.7h5.8c1 .3 1.6.7 1.7 1.4a28.9 28.9 0 0 1 .8 8c0 .8-.6 1.4-1.6 1.7l-3.4 1v2.4h-3.3Zm3.3 2.5v6.9l1-.3q.8-.2.8-.7a25.8 25.8 0 0 0 0-2.7 9.6 9.6 0 0 0-.6-2.7 1 1 0 0 0-.9-.5ZM202.8 191.7h4.6l3 14.6H208l-.2-1-3.5.1-.1 1h-3.3Zm4.4 11.7-1.6-8.2-1.1 8.3ZM213.9 191.8h4.1a2.7 2.7 0 0 1 1.5.4 1.1 1.1 0 0 1 .6 1v1.5H217v-1.4h-2.1V205h2.1v-3.8h3.1v6H217v-.6h-3.1a2.7 2.7 0 0 1-1.5-.4 1.1 1.1 0 0 1-.6-1v-12a1.1 1.1 0 0 1 .6-.9 2.7 2.7 0 0 1 1.5-.4ZM224 191.7h4.1a2.7 2.7 0 0 1 1.5.4 1.1 1.1 0 0 1 .6 1v12a1.1 1.1 0 0 1-.6.8 2.7 2.7 0 0 1-1.5.4H224a2.7 2.7 0 0 1-1.4-.3 1.1 1.1 0 0 1-.6-1v-12a1.1 1.1 0 0 1 .6-1 2.6 2.6 0 0 1 1.4-.3Zm1 1.5v11.6h2v-11.6ZM238.7 191.8h5.6c1 .2 1.7.7 1.8 1.4a39.8 39.8 0 0 1 .8 10.5c0 .8-.6 1.3-1.6 1.7a18.2 18.2 0 0 1-3.2.8 27 27 0 0 1-3.4.2Zm3.2 1.9v10.7l1-.3c.5-.2.7-.4.7-.8l.1-1.9a48.6 48.6 0 0 0-.2-5.3 10 10 0 0 0-.4-2q-.2-.4-1-.4ZM252.2 203v1.2h4.3v2H249v-14.5h7.6v2.1h-4.3v7.3l2.5-.1v2ZM275.2 191.9l-2.4 14.5h-4.5l-2.5-14.5 3.3-.3 1.4 8.3 1.4-8.3ZM280.1 203v1.2h4.3v2h-7.6v-14.5h7.7v2.1H280v7.3l2.5-.1v2ZM292.6 194v12.5h-3.4v-12.6H287v-2.1h8.1v2.1ZM306 191.9l-2.5 14.5h-4.4l-2.5-14.5 3.3-.3 1.4 8.3 1.5-8.3ZM20.2 192h4.6a3 3 0 0 1 1.6.5 1.2 1.2 0 0 1 .7 1v1.6h-3.5v-1.4h-2.3v12h2.3v-.8h3.5v1a1.1 1.1 0 0 1-.7 1 3 3 0 0 1-1.6.4h-4.6a3.1 3.1 0 0 1-1.7-.4 1.1 1.1 0 0 1-.6-1v-12.4a1.2 1.2 0 0 1 .6-1 3.1 3.1 0 0 1 1.7-.4ZM31.3 192H36a3 3 0 0 1 1.6.4 1.1 1.1 0 0 1 .7 1v12.4a1.2 1.2 0 0 1-.7 1 3 3 0 0 1-1.6.4h-4.6a3.2 3.2 0 0 1-1.6-.4 1.1 1.1 0 0 1-.7-1v-12.4a1.1 1.1 0 0 1 .7-1 3.2 3.2 0 0 1 1.6-.4Zm1.1 1.6v11.9h2.4v-12ZM40.1 192h6.5a22.8 22.8 0 0 1 6.2.6c.8.3 1.3.6 1.3 1.1v13.4h-3.7v-13c-.1-.3-.6-.4-1.4-.4v13.4h-3.6v-13a2.8 2.8 0 0 0-1.7-.4v13.4h-3.6ZM56 192h6.3c1.2.3 1.8.7 2 1.4a28.1 28.1 0 0 1 .8 8.3c0 .9-.5 1.4-1.6 1.7l-3.9 1.1v2.5H56Zm3.6 2.6v7l1.2-.2c.5-.2.8-.4.8-.8a24.7 24.7 0 0 0 0-2.7 9.3 9.3 0 0 0-.7-2.8q-.1-.4-1-.5ZM67.1 192H73.4c1.2.3 1.8.8 2 1.5a27.4 27.4 0 0 1 .8 8.3q0 1.2-1.7 1.7l-.3.1 2.8 3.7-3.4 1-2.7-3.7h-.2v2.6H67Zm3.6 2.7v7l1.2-.3c.5-.1.8-.4.8-.7a16.2 16.2 0 0 0 0-2.8 10 10 0 0 0-.7-2.7c0-.3-.4-.5-1-.5ZM80.5 192h5.2l3.4 15h-2.9l-.2-1-3.8.2-.2 1h-3.6Zm5 12-1.8-8.4-1.2 8.6ZM100 192.7v2.6h-3.7v-1.6a3.5 3.5 0 0 0-1.1-.2 3 3 0 0 0-1 .2v2.9l4.7.5a1.6 1.6 0 0 1 .9.3.8.8 0 0 1 .2.6v8.4c0 .4-.7.7-2 1a19 19 0 0 1-2.8.1 17.5 17.5 0 0 1-2.8-.2c-1.2-.2-1.9-.5-1.9-1v-4.7h3.6v3.9a3.2 3.2 0 0 0 1.1.2 3.8 3.8 0 0 0 1.1-.2V199l-4.9-.6c-.6-.1-.9-.4-.9-.7v-5c0-.5.7-.8 2-1a20.5 20.5 0 0 1 2.8-.3 16.4 16.4 0 0 1 3.3.3c.9.2 1.4.5 1.4 1ZM109.5 192h6.4c1 .3 1.7.7 2 1.4a28.1 28.1 0 0 1 .8 8.3c0 .9-.6 1.4-1.7 1.7l-3.8 1.1v2.5h-3.6Zm3.6 2.6v7l1.2-.2c.6-.2.8-.4.9-.8a24.7 24.7 0 0 0 0-2.7 9.3 9.3 0 0 0-.7-2.8q-.2-.4-1-.5ZM123 192h4.7a3 3 0 0 1 1.6.4 1.1 1.1 0 0 1 .7 1v12.4a1.1 1.1 0 0 1-.7 1 3 3 0 0 1-1.6.4H123a3.2 3.2 0 0 1-1.6-.4 1.1 1.1 0 0 1-.7-1v-12.4a1.1 1.1 0 0 1 .7-1 3.2 3.2 0 0 1 1.6-.4Zm1.2 1.6v11.9h2.3v-12ZM131.8 192H138c1.1.3 1.8.8 2 1.5a27.4 27.4 0 0 1 .8 8.3c0 .8-.6 1.4-1.7 1.7l-.4.1 2.9 3.6-3.4 1-2.7-3.7h-.2v2.6h-3.6Zm3.6 2.7v7l1.1-.3c.6-.1.9-.4.9-.7a18.6 18.6 0 0 0 0-2.8 10.3 10.3 0 0 0-.7-2.7c-.1-.3-.4-.5-1-.5ZM150.6 198.7h3.7v2.2h-3.7Zm0 6.2h3.7v2.2h-3.7Z"/></g></svg>