<svg xmlns="http://www.w3.org/2000/svg" width="52.56mm" height="37.984" data-name="Capa 1" viewBox="0 0 149 28.5"><path d="M34.14 4.18V5.9l-9.45-1.72Zm0 3.65v1.72l-9.45-1.72Zm0 3.65v1.72l-9.45-1.72Zm0 3.65v1.72l-9.45-1.72Zm0 3.65v1.72l-9.45-1.72Zm0 3.66v1.71l-9.45-1.71Zm0 3.68v1.71l-9.45-1.71ZM42.68 28v-8.8h-.27l-2 8.75h-5.55V4.18h4.79l-.44 13.27h.15l3.12-13.27h3.63v13.27h.15l2.57-13.27h4.78L48.73 28ZM56.57 27.78 53 26.22l3.83.34Zm.43-2.64-3.62-1.56 3.83.34Zm.45-2.61L53.86 21l3.84.34Zm.46-2.61-3.62-1.56 3.84.34Zm.46-2.61-3.62-1.56 3.83.34Zm.45-2.61-3.62-1.56 3.83.34ZM57.38 28l2.38-14.53h4.56L61.91 28ZM83.89 27.87 73 26.63h11.2Zm.57-2.67L73.54 24h11.2Zm.59-2.64-10.91-1.23h11.17Zm.57-2.63-10.89-1.24h11.18Zm.6-2.64-10.89-1.24h11.15Zm.57-2.64-10.86-1.23h11.15Zm.6-2.63-10.87-1.24h11.13ZM89.8 28h-5.14l3.79-17.17h6.43l.47 8.73h.18l3.37-8.73h6.43L103.41 28h-5.16l1.09-8.33h-.18L95.92 28h-3.76l-.55-8.33h-.13Z"/><path d="m108.74 27.93-5.39-.47 5.88-.68Zm1.06-2.56-5.4-.61 5.89-.57Zm1.07-2.6-5.4-.76 5.89-.44Zm1.13-2.64-5.4-.92 5.91-.32Zm1.12-2.71-5.4-1.08 5.91-.18Zm1.14-2.8-5.39-1.22h5.9Zm4 13.33-.1-2.23h-3.27L114 28h-4.49l5.76-14.53h6.43l1 14.53Zm-.1-6.16v-4.17h-.37l-1.53 4.17ZM124.64 25.52l-.11 2.17-1.53-2.17Zm-1.9-4.91H127l-.28 2.18Zm4.93-17.15-15.89-2.28h15.37ZM112.94 6h15.33l.53 2.28Zm16.46 9.71-.46 2.18-6.6-2.18ZM114 10.9h15.33l.53 2.27Zm21.78-9.72 1 6h.34l2.66-6H147l-6.56 13.26L143.53 28h-7.35L135 21.67h-.34L131.91 28h-7.12l6.56-13.51-3.08-13.31ZM67.07 27.78l-3.62-1.56 3.83.34Zm.46-2.64-3.62-1.56 3.83.34Zm.47-2.61L64.36 21l3.84.34Zm.46-2.61-3.62-1.56 3.83.34Zm.46-2.61-3.63-1.56 3.84.34Zm.45-2.61-3.62-1.56 3.83.34ZM67.88 28l2.38-14.53h4.56L72.41 28ZM16.09 2.44v-2a5.36 5.36 0 0 1 .67.24c2 1.11 4 2.24 6.07 3.34a1.07 1.07 0 0 1 .63 1.24 1.54 1.54 0 0 0 1 1.91 1.06 1.06 0 0 1 .44.83v12.74a1.09 1.09 0 0 1-.46.81Q18.69 24.82 12.91 28a1.15 1.15 0 0 1-.91 0Q6.2 24.79.43 21.51a1 1 0 0 1-.43-.75V7.94a1.08 1.08 0 0 1 .48-.8Q6.2 3.9 12 .74a1.41 1.41 0 0 1 1.1 0c.9.5 1.9 1.07 2.99 1.7ZM2.32 11.86a18.27 18.27 0 0 1 10.12-3.13 18.52 18.52 0 0 1 10.16 3.11V8.91c0-.2-.31-.45-.53-.54a1.35 1.35 0 0 1-.92-1.56c0-.4 0-1-.23-1.17a20.5 20.5 0 0 0-2.43-1.43l-.14 2c-.55-.27-1-.46-1.36-.67-1.33-.74-2.61-1.49-3.99-2.17a1.36 1.36 0 0 0-1.1 0C8.88 5 5.84 6.69 2.81 8.4a1 1 0 0 0-.47.65c-.05.86-.02 1.74-.02 2.81Zm-.06 8.05a12.14 12.14 0 0 1 10.25-5.4A12 12 0 0 1 22.61 20c.08-1.36.09-2.65.06-3.94a1 1 0 0 0-.33-.59 14.94 14.94 0 0 0-19.65-.12c-.18.17-.41.42-.41.64-.04 1.28-.02 2.6-.02 3.92Zm5.13 3a6.18 6.18 0 0 1 3.08-2.45 6 6 0 0 1 6.63 1.87c.17.2.58.45.74.38.73-.33 1.41-.76 2.1-1.15-1.11-2.56-4.65-4.41-7.94-4.24-3 .15-6.38 2.2-7 4.29Zm2.61 1.5c.76.42 1.46.82 2.17 1.2a.58.58 0 0 0 .46.05c.78-.41 1.53-.84 2.3-1.27a2.87 2.87 0 0 0-4.93.02Z"/><path d="M107.92 10.16H58.41a4.31 4.31 0 0 1-4.32-4.31V5A4.31 4.31 0 0 1 58.41.64h49.51A4.31 4.31 0 0 1 112.23 5v.9a4.31 4.31 0 0 1-4.31 4.26ZM98.49 6a9.38 9.38 0 0 0 0-1.3c0-.2-.23-.37-.35-.56-.15.19-.42.37-.43.57v2.58c0 .23.2.44.3.66a1.79 1.79 0 0 0 .56-.31c.47-.52.92-1.07 1.52-1.78 0 .54 0 .83.06 1.1s.19.65.28 1a2.67 2.67 0 0 0 1-.35 8.67 8.67 0 0 0 2.15-3.33c-.64-.27-.94 0-1.2.52a21.53 21.53 0 0 1-1.09 1.86l-.29-.18V4.81a1 1 0 0 0-.32-.63c-.08-.06-.4.13-.54.28-.47.51-.91 1-1.36 1.57Zm-17.28.19c.18.2.34.51.55.56a3.1 3.1 0 0 0 1.25 0 1.22 1.22 0 0 0 1-1.33 1.18 1.18 0 0 0-1.15-1.27 7.77 7.77 0 0 0-1.67 0 1.48 1.48 0 0 0-.85.47 3.62 3.62 0 0 0-.06 2.82 2.09 2.09 0 0 0 2.18.56.56.56 0 0 0 .31-.41.57.57 0 0 0-.31-.39 1.51 1.51 0 0 0-.67 0c-.69.08-1-.22-.93-1C80.89 5 80.88 5 82 5a1.6 1.6 0 0 1 .58 0 3.17 3.17 0 0 1 .62.41c-.22.16-.42.41-.66.47a4.87 4.87 0 0 1-1.08 0Zm-12.28.59h1A1.32 1.32 0 0 0 71 4.93c-.4-1.07-1.32-.78-2.1-.82s-1.46-.05-1.65.83a5.57 5.57 0 0 0 0 2.19c.07.34.59.65 1 .82a3.23 3.23 0 0 0 1.08 0c.6 0 .62-.3.48-.81h-.77C68 7.12 68 7.1 68 6c0-.83.26-1.13 1-1a3.7 3.7 0 0 1 .67 0 2.78 2.78 0 0 1 .62.41c-.22.16-.42.41-.66.46a5.44 5.44 0 0 1-1.14 0c-.21.6-.15.91.44.88ZM77.39 5c1 0 1.16.17 1.17 1.25a8.49 8.49 0 0 0 0 1.24c0 .19.27.34.41.51.14-.18.38-.34.4-.53.32-2.65-.25-3.34-2.73-3.34h-.59c-.48 0-.65.24-.64.71v2.58c0 .2.22.38.34.57.15-.19.42-.36.44-.56.05-.76 0-1.53 0-2.43h1.2ZM62 7v.35a5 5 0 0 0 .4.65c.14-.2.38-.4.4-.61.2-2.75-.27-3.28-2.8-3.28h-.5c-.46 0-.67.2-.67.69v2.66c0 .18.26.34.4.51.13-.17.37-.34.38-.53V5.1c2.11-.4 2.33-.21 2.39 1.9Zm23.47-1.82v2.14c0 .23.28.44.44.66.13-.21.37-.42.38-.64V5.21c.5-.49 1.56.22 1.46-1l-1.37-.09-.17-1.15h-.72L85.4 4l-1 .15c-.28 1.15.68.65 1.07 1.03Zm-21.17-.1v2.27c0 .21.25.42.38.62.15-.21.41-.42.43-.65.05-.75 0-1.51 0-2.25 1.55-.22 1.55-.22 1.36-.92l-1.27-.09-.12-1.18-.72.05-.14 1.13-1 .1c.01.73.01.73 1.08.92Zm42.37-2.54a1.12 1.12 0 0 0-1.11 1.21v3.64c0 .2.27.39.42.58.13-.21.35-.41.37-.63V5.2c0-1.77 0-1.79 1.66-1.81.6 0 .74-.24.54-.87-.61 0-1.25-.04-1.88.02ZM93.78 4.77v3.11c0 .57-.16.84-.76.87-.39 0-1.14-.37-1.12.4s.79.39 1.21.42c.91.06 1.43-.36 1.46-1.18.05-1.38 0-2.77 0-4.17-.63-.22-.8.01-.79.55Zm15.37 2.66c0 .19.24.36.37.54.15-.16.42-.32.42-.49V4.16h-3.08c-.2.6 0 .85.55.82s1.06 0 1.71 0c.02.92-.01 1.69.03 2.45ZM57 7.49c0 .2.39.39.6.58l.21-.18v-5H57v4.6Zm15.86-3.37a1.19 1.19 0 0 0-1.21 1.29 12.83 12.83 0 0 0 0 1.86c0 .25.25.47.39.71a6 6 0 0 0 .42-.69 1.22 1.22 0 0 0 0-.43c0-1.81 0-1.83 1.69-1.87.53 0 .73-.19.54-.88-.61 0-1.22-.02-1.83.01Zm20.43 3a6.76 6.76 0 0 0-.9 0c-.74.09-1-.23-1-1V3.86c-.41.3-.78.44-.79.61A10.93 10.93 0 0 0 90.71 7c.07.37.61.71 1 .9a1.8 1.8 0 0 0 1.08 0c.24-.06.43-.33.65-.5ZM104.44 4c-.18.19-.52.37-.54.58-.05 1 0 1.9 0 2.85 0 .17.27.34.41.5.13-.15.36-.31.36-.47V4.18ZM109 2.8l.54.57.37-.45-.6-.5Z" style="fill:#b72323"/></svg>